<svg enable-background="new 0 0 149 139" viewBox="0 0 149 139" xmlns="http://www.w3.org/2000/svg"><path d="m87 140c-11.354225 0-22.708458 0-34.532387-.421219-1.132213-3.142044-1.794719-5.862884-2.439598-8.98793.246533-2.854401 1.076901-5.433121.58606-7.729439-1.232144-5.764366-3.061764-11.401009-4.538342-17.291992.436783-.537056.760117-.870995 1.478554-1.260613 6.821293.125611 8.85265-4.300926 10.62616-9.386779.9529.069954 1.498241.10157 1.998554.539825-.382736 2.830399-1.175694 5.296188-.956642 7.668533.374309 4.053864 2.902321 5.308083 7.168419 3.888802 1.157241-.133766 1.924354-.256783 3.050972-.300385 3.030281 3.235688 5.701057 6.391968 8.413833 9.802552.175904.570877.309822.887443.426644 1.586311 1.22599 4.317909 2.469085 8.253525 3.790527 12.51474 1.694649 3.342941 3.310951 6.360275 4.927246 9.377594z" fill="#34312b"/><path d="m126 1c1.066673 0 2.133347 0 3.656982.34355 2.751648 2.448271 5.046341 4.552991 7.342026 6.657068.000992-.000642-.000229.001023-.000381.424713.649856 2.62672.821045 5.156657 2.053619 6.961929 2.278687 3.337437 7.113617 4.682074 7.42923 9.751643.042999.690706 2.29129 1.244117 3.518524 1.861097 0 7.354252 0 14.7085-.378815 22.547958-1.80606 1.59689-3.827499 2.412846-4.554245 3.873143-2.674438 5.373829-7.297348 8.768867-12.680359 8.949455-5.107742.171364-8.508964 2.387005-12.404335 4.779858-1.659004 1.019104-4.423477 1.002891-6.383636.427879-.907768-.266289-1.247093-2.967446-1.555809-4.618641-.239121-1.278961-.030151-2.641701.292236-3.892746 6.389481 3.878487 4.348015-3.346676 6.920922-4.27364 2.120506-.566154 3.951782-1.624687 5.906776-2.34954 1.215698-.450741 2.716949-.781865 3.914169-.476704 1.718964.438145 3.277634 1.505272 4.904724 2.303894.673005-2.090202 1.345993-4.180405 2.019745-6.645039.00148-1.123283.002182-1.872139.396607-2.619186 2.269653.196728 4.145599.391644 6.426956.628685-.614792-2.892807-2.036331-5.510338-1.436096-7.525738 1.754013-5.889454-1.924118-8.838224-5.393296-12.441232-.001617-.776389-.003082-1.22004-.002151-2.075568-.738205-2.592115-1.38591-4.816423-2.366501-6.882765-.095489-.201248-3.064835.299359-3.280456.946923-.545441 1.63801-.281937 3.545383-.503327 5.618425-1.054977.757349-1.949097 1.241125-3.093216 1.487074-8.252044-3.628904-10.592201-6.848648-9.084022-12.096122.623436-2.169112.897247-4.438707 1.67234-6.607457 1.638603.586725 2.934937 1.118304 4.78347 1.876323.70739-2.61188 1.292855-4.773559 1.878319-6.935239z" fill="#c5bba3"/><path d="m37 140c-11.911787 0-23.823574 0-36 0 0-7.685516 0-15.374069.358916-23.546722 2.6975-2.701325 5.036083-4.918549 7.61546-7.364075 1.649207 2.397293.797932 8.520645 6.302415 3.929642.440333-.053788.615719-.081154 1.16093-.100998 2.117207-.6194 3.86459-1.246323 5.932423-1.931633 1.107754-.413864 1.895059-.769341 3.019295-1.159096.775138-.142853 1.213348-.251412 1.856271-.254501.204714.105476.660035.174888.730723.560165 1.678762 3.930618.455675 6.1045-2.822787 8.099152-2.451021 1.491218-4.66089 3.778854-6.215398 6.201316-1.017075 1.584977-.671641 4.044274-.936478 6.111962 1.607977-1.009522 3.207182-2.033585 4.83305-3.01342.254219-.153199.62972-.105156.949137-.15017 3.119554 3.507218 6.933448 5.925171 10.512365 8.651612 1.207664.919998 1.819527 2.6221 2.703678 3.966766z" fill="#181818"/><path d="m118.995934 6.00377c-.432816 2.223896-.706627 4.493491-1.330063 6.662603-1.508179 5.247474.831978 8.467218 8.7975 12.336267-3.868988 1.24595-7.073562.687427-9.652717-2.790896-.777306-1.048301-3.111618-1.315412-4.713555-1.269708-1.482345.042291-2.939109.981702-5.637214 1.982145 1.064186-3.154732 2.197166-5.2209 2.357238-7.359873.152985-2.044399-.70626-4.164548-1.120575-6.251398-1.8796.858169-3.897193 1.510417-5.591209 2.645545-1.16552.780991-1.882324 2.231615-3.149254 3.317101-5.872787-.715277-11.395988-1.364708-17.217766-2.185567-2.402862.544837-4.507148 1.261102-6.914405 1.838829-1.143189-.401961-1.983399-.665384-2.908295-1.250494-2.027908-1.44023-3.97113-2.55877-5.982254-3.981704-.690666-.769757-1.313431-1.235122-1.82608-2.042698 2.452896-.637296 4.795677-.932381 8.454315-1.393204.607322-.929193 2.022857-3.094956 3.4384-5.260719 12.687561.000001 25.375122.000001 38.581917.329972 1.817497 1.777914 3.115753 3.225856 4.414017 4.673799z" fill="#cac0a8"/><path d="m37.458069 140c-1.34222-1.344666-1.954083-3.046768-3.161747-3.966766-3.578917-2.726441-7.392811-5.144394-10.512365-8.651612-.319417.045014-.694918-.003029-.949137.15017-1.625868.979835-3.225073 2.003898-4.83305 3.01342.264837-2.067688-.080597-4.526985.936478-6.111962 1.554508-2.422462 3.764377-4.710098 6.215398-6.201316 3.278462-1.994652 4.501549-4.168534 2.842391-8.285523-.051089-.571648.003528-.946525.018037-.990494.01451-.043968-.062704-.095092.311953-.121048 1.831579-.435737 3.288502-.845527 5.134331-1.184402 1.440906.146278 2.492897.221634 3.530227.670669-2.666549 5.250954-1.38182 8.579911 3.685105 10.900544 1.124119.514846 2.334556 2.639106 2.171817 3.841911-.578495 4.275642 1.341515 7.228386 4.154404 10.337898.331738 2.466873.664913 4.5327.998089 6.598511-3.361286 0-6.722576 0-10.541931 0z" fill="#1c1c1b"/><path d="m150 92c0 5.354927 0 10.709862-.348495 16.473488-2.104798-.80101-3.991776-3.196831-5.595353-3.020165-7.989807.880249-12.906204-2.075935-15.011902-9.897529-.131103-.486977-2.969955-.888352-3.086944-.640229-2.092606 4.438477-5.38382 4.307335-9.548729 1.954407.226227 3.486145.404396 6.231652.235481 8.907509-2.991287-1.051178-5.635505-2.032692-8.356323-3.212212-.076607-.197998-.335907-.534233-.344872-.913871.010804-1.137894.030564-1.896157.316536-2.713959.083344-.681114-.099525-1.302696-.320259-2.260407-.256073-1.440177-.474273-2.544212-.48751-3.908767.652351-1.762596 1.099746-3.264672 1.893203-4.677979 2.993515.89708 5.679131 2.414223 8.275566 2.274483 1.854142-.099785 3.461556-2.665787 5.410996-3.689743 2.080261-1.092682 4.414551-2.112213 6.677849-2.206604.719543-.030006 1.601883 2.989288 2.347824 4.64119 1.221252 2.70449 2.080932 5.643852 3.724136 8.053894.743576 1.090576 2.988648 1.548233 4.57518 1.600036 4.788483.156388 7.207886-3.384369 9.643616-6.763542z" fill="#9c9683"/><path d="m150 91.536819c-2.43573 3.842354-4.855133 7.383111-9.643616 7.226723-1.586532-.051803-3.831604-.50946-4.57518-1.600036-1.643204-2.410042-2.502884-5.349404-3.724136-8.053894-.745941-1.651902-1.628281-4.671196-2.347824-4.64119-2.263298.094391-4.597588 1.113922-6.677849 2.206604-1.94944 1.023956-3.556854 3.589958-5.410996 3.689743-2.596435.13974-5.282051-1.377403-8.275451-2.605751-.328026-.861267-.310105-1.302506-.009148-1.789803.750153-.357551 1.217278-.669052 1.995712-.907997 2.364098 1.881661 3.572968 1.144753 5.604439-.603264 3.375992-2.904914 6.682358-8.476318 11.865151-5.672279 4.557724 2.465866 8.522262 1.474289 12.845184 1.054451 2.785507-.270515 5.569199-.559448 8.353714-.840126z" fill="#a49d8b"/><path d="m107.951828 102.031036s.2593.336235.034607.833115c-2.479019 7.376442-4.73333 14.256004-7.29158 21.203033-.767464.689148-1.231003 1.31083-1.909241 2.126862-.405083.731613-.595459 1.268883-1.010986 2.052475.258148 1.415375.741455 2.584427 1.225067 3.753479.000305 0 .000305.00061.0541.357712.017929 2.785492-.017929 5.213897-.053795 7.642288-3.692909 0-7.385818 0-11.539368 0-2.076927-3.017319-3.693229-6.034653-5.048446-9.502869 2.402519-3.954811 4.54396-7.458732 7.009674-11.04882 1.128517-.786537 1.932777-1.486916 3.020393-2.33738 1.027504-1.140075 1.771652-2.130066 2.741799-3.283073.466056-.655548.706115-1.148087 1.278327-1.752663 2.456627-2.385215 4.581101-4.658386 6.954018-7.122474.686958-1.112824 1.125465-2.034729 1.935478-2.94497 1.114319.015534 1.857132.01941 2.599953.023285z" fill="#333029"/><path d="m1 87c0-2.700958 0-5.401924.391544-8.568436 2.829984-1.343506 5.268423-2.221443 7.706862-3.09938-.187112-.777397-.374224-1.554787-.561336-2.332184-2.512356 0-5.024713 0-7.53707 0 0-1.388893 0-2.777779.39862-4.583794 2.989838-.729812 5.581057-1.042503 8.46177-1.178604 2.159822-.654915 4.030151-1.486412 6.269502-2.385017 1.147028-2.386929 1.925036-4.706757 2.655707-7.060841-.047337-.03426-.072623-.148353.249174-.020801 1.174297 1.148544 2.026798 2.169536 2.85512 3.482006-.631783 1.441585-1.23939 2.59169-1.91845 4.094562-1.161821 2.719796-2.252188 5.086815-3.622417 7.599083-1.643649 1.780495-3.00743 3.415734-4.717696 5.155152-3.303427 4.483619-3.373537 5.836509-.55053 8.64981.686122-1.67707 1.326538-3.242431 2.191541-4.626876.711886.768455 1.199185 1.356018 1.64674 2.278076-.332742 1.422081-.625738 2.509666-1.097558 3.798568 1.58635 3.449204 2.961775 2.482628 4.500628-.256012 1.113218-.965446 1.904158-1.876502 2.984783-2.96875 1.72723-.849037 3.164774-1.51686 4.970778-2.129173 1.809072-.286995 3.249683-.629509 5.073217-.913673 2.14061 1.062813 3.898297 2.067261 5.357437 3.210953-1.114688.448402-1.930828.757545-3.112381 1.063964-2.07213.952233-3.778846 1.907204-5.803772 2.960274-1.503128.990006-2.688049 1.881912-4.075187 2.802025-.202215.028198-.602816.107346-.986939.09568-5.969269.699089-11.554415 1.409851-17.250766 2.134758-1.327451-2.472755.965886-7.310226-4.479321-7.20137z" fill="#d8d0be"/><path d="m112.02243 58.992455c-.00978 1.325496-.21875 2.688236.020371 3.967197.308716 1.651195.648041 4.352352 1.555809 4.618641 1.960159.575012 4.724632.591225 6.383636-.427879 3.895371-2.392853 7.296593-4.608494 12.404335-4.779858 5.383011-.180588 10.005921-3.575626 12.680359-8.949455.726746-1.460297 2.748185-2.276253 4.554245-3.404515.378815 4.007958.378815 8.032502.035141 12.577114-5.260559 3.026684-10.061554 5.814877-15.148361 7.90868-2.198547.904961-4.987457.37571-7.841019.49865-.776596.000824-1.220367.000969-2.044571.004219-1.461753.999207-2.54306 1.9953-3.872802 2.993286-.248436.001892-.745301.004807-1.10904.015808-2.456108 1.336388-4.548477 2.661782-6.923355 3.857498-1.273018-.375579-2.263527-.62149-3.340019-1.261688-.194801-6.141754-.303604-11.889236-.286674-17.917286.507316-.761982.888893-1.243393 1.543518-1.724994.637085.010685 1.001136.021553 1.367622.364494.00856.774746.014687 1.217415.020805 1.660088z" fill="#b9af9b"/><path d="m30 1c.75 0 1.5 0 2.628288.37531.367653 1.125869.357018 1.876429.09076 2.778348-.079651 1.051717.096324 1.952075.273494 3.184771.003216.775452.005234 1.218566.009739 2.055425 2.802857 7.783989-4.405618 11.288855-6.804777 17.09856 3.457249 1.236485 6.630518 2.371403 9.803141 3.506953-.000645.000633.000728-.000647-.026242.373657-1.534629 1.600925-3.042293 2.827549-4.534309 4.041447 1.179996 9.462837 2.372009 19.022033 3.189636 28.521782-5.872848-.185238-3.770326-5.383255-5.626598-8.327027-.000479-1.171177-.00528-1.951965.037628-3.079937 1.557858-4.158001.404301-6.284759-4.135881-6.625236-1.197882-1.477471-2.082285-2.798306-2.979338-4.439339-.014866-.953831-.017086-1.587467.049601-2.597992 1.175928-4.498081 4.97105-8.104324 2.198005-13.029438-.397831-.706577 1.015669-2.497894 1.697447-3.728157.61153-1.1035 1.815142-2.057943 1.988081-3.195162.854139-5.616642 1.452648-11.272159 2.141325-16.913965z" fill="#b5ae9e"/><path d="m125.002808 71.002136c.443771-.000137.887542-.000282 1.731445.354798 3.072205 1.24469 5.774933 2.94786 8.409759 2.848594 4.972626-.187317 9.906189-1.412002 14.855988-2.205528v6.5625c-2.784515.718178-5.568207 1.007111-8.353714 1.277626-4.322922.419838-8.28746 1.411415-12.845184-1.054451-5.182793-2.804039-8.489159 2.767365-11.865151 5.672279-2.031471 1.748017-3.240341 2.484925-5.669563.306298-.957954-.85508-1.539475-1.340645-2.348213-1.833824-.227219-.007615-.676323.063453-.708382-.353844.015114-2.079765.062294-3.742226.397263-5.434097.477226-.065621.666664-.10183.856094-.138047.990501.245911 1.98101.491822 3.428711 1.151413 5.347961 2.786576 5.830727-1.265182 7.112411-4.152511 0 0 .496865-.002915 1.103661-.015839 1.70282-1.003738 2.798843-1.994553 3.894875-2.985367z" fill="#aca592"/><path d="m150 133v7c-4.349854 0-8.70079 0-13.594467-.396729-1.460465-4.349075-2.999634-8.281951-3.124268-12.259132-.129257-4.123863 1.111832-8.290665 2.054993-12.289055 2.482346 2.390396 4.663299 4.631165 6.939407 7.197815 2.638214 3.799629 5.181275 7.273361 7.724335 10.747101z" fill="#45433a"/><path d="m1 50c0-16.333351 0-32.666706 0-49 2.039927 0 4.022059 0 6.485352.396082-.496437 9.622007-1.766374 18.831896-2.27382 28.083609-.152606 2.782302 1.816785 5.680992 2.603897 8.793251-.994655 2.118194-1.779123 3.969501-2.664325 6.164985-1.450857 2.083477-2.800981 3.822777-4.151104 5.562073z" fill="#868378"/><path d="m29.5625 1c-.251177 5.641806-.849686 11.297323-1.703825 16.913965-.172939 1.137219-1.376551 2.091662-1.988081 3.195162-.681778 1.230263-2.095278 3.02158-1.697447 3.728157 2.773045 4.925114-1.022077 8.531357-2.420917 12.982117-.291817.329571-.741051.246536-.931259.017261-.737078-.435371-1.283949-.641464-1.844241-1.226127-1.387125-3.549847-2.187471-6.419941-.319214-10.036408 1.802861-3.489883 2.556805-7.63871 3.178063-11.591341.724279-4.608096.804647-9.317399 1.164421-13.982786z" fill="#aea998"/><path d="m75.533142.999999c-.948685 2.165763-2.36422 4.331526-2.971542 5.260719-3.658638.460823-6.001419.755908-8.654503 1.524334-.561676.677862-.761952.923961-1.294827 1.210084-2.634197.117289-6.205192-2.058337-5.899616 3.181464-4.00642 2.390518-7.629322 4.799385-11.51141 6.670509-.861717.415336-2.637561-1.06591-3.992508-1.673893.820076-1.074694 1.614468-2.170266 2.466679-3.218842 1.086342-1.336653 2.219437-2.635308 3.663002-4.098484 4.440949-3.050723 8.551266-5.953306 12.661583-8.85589 5.022095 0 10.044182 0 15.533142-.000001z" fill="#cec4af"/><path d="m22.555836 1c.08439 4.665387.004022 9.37469-.720257 13.982786-.621258 3.952631-1.375202 8.101458-3.178063 11.591341-1.868257 3.616467-1.067911 6.486561.101685 10.242241-.366259 1.150807-.528412 1.717213-.776535 2.585259-.75177.728973-1.417566 1.156307-2.309494 1.28878-1.803969-5.635426-1.970241-10.773092-1.013187-16.494318 1.261299-7.539997.329138-15.44692.340015-23.196089z" fill="#a7a192"/><path d="m142.180511 121.92701c-2.180954-2.240761-4.361907-4.48153-7.007553-7.137841-1.707244-1.133537-2.949783-1.851539-4.477676-2.785095-3.796104-1.965996-7.306854-3.716446-10.822449-5.827331-.073929-1.430298-.143013-2.500161-.251343-4.177826 5.589524 2.475517 11.844849 1.427307 15.93393 6.334495 3.815536 4.578957 9.015076 5.011383 14.44458 4.666588 0 2.37056 0 4.741112-.406555 7.556091-2.74202.753258-5.077469 1.062088-7.412934 1.370919z" fill="#90897b"/><path d="m150 112.600006c-5.429504.744789-10.629044.312363-14.44458-4.266594-4.089081-4.907188-10.344406-3.858978-15.93393-6.334495.10833 1.677665.177414 2.747528-.107414 4.080467-1.076919.097961-1.799927-.067146-2.522934-.232254-.178169-2.745506-.356338-5.491013-.582565-8.977158 4.164909 2.352928 7.456123 2.48407 9.548729-1.954407.116989-.248123 2.955841.153252 3.086944.640229 2.105698 7.821594 7.022095 10.777778 15.011902 9.897529 1.603577-.176666 3.490555 2.219155 5.595353 3.48777.348495 1.12558.348495 2.192246.348495 3.658913z" fill="#98917f"/><path d="m14.600004 1c.389119 7.749169 1.32128 15.656092.059981 23.196089-.957054 5.721226-.790782 10.858892.993372 16.818002-.336015 1.764676-.878344 2.910801-1.778578 3.966942-.871719-1.090221-1.385535-2.090454-1.919035-3.429081-.673819-1.4398-1.327953-2.541206-2.032519-3.993663.325304-12.420126.70104-24.489208 1.076775-36.558289z" fill="#9b9689"/><path d="m130 140c-6.687645 0-13.37529 0-20.539558-.330856-.804459-1.110291-1.132294-1.88971-1.418969-2.984848.347054-1.105225.652939-1.89476 1.377976-2.684204 2.206871.188278 4.067345.762558 5.759521.443695 1.378197-.259705 2.554955-1.588456 4.161179-2.500245 2.15004-1.605545 3.959946-3.154037 5.997971-4.897682 2.348983 2.806404 4.503967 5.381035 6.658767 8.288216-.001327.775925-.002472 1.219315-.328613 1.748566-.772751 1.029678-1.22052 1.973526-1.668274 2.917358z" fill="#333029"/><path d="m59.531467 1c-3.641784 2.902584-7.752101 5.805167-12.556888 8.911911-3.453755 1.165526-6.213047 2.12689-9.21994 2.885799-1.750019-1.400836-3.252434-2.599218-4.754845-3.7976-.002018-.443115-.004036-.886229.126549-1.863691.340442-.788131.590397-.989687 1.108856-.911184 1.579403 3.220722 3.405331 2.919216 4.524895.356146.695263-1.591697.200523-3.703192.239906-5.581381z" fill="#c2b9a6"/><path d="m22.049692 111.044594c-1.747381.62693-3.494764 1.253853-5.61286 1.485863-.143716-1.688042.178147-2.972878.291844-4.275887.297985-3.414986-2.01915-6.483673-5.14716-6.362648-3.133672.620377-5.85995 1.210083-8.586227 1.799797.063831.383965.127662.767929.191493 1.151894 1.110481.324997 2.220962.650001 4.96802 1.453964-3.261909 1.687958-5.208355 2.69519-7.154802 3.702423 0-3.030594 0-6.061188.459133-9.522598 6.827468.224449 12.784022-.805519 18.4272-4.588097.917183 1.683685 1.769024 3.203247 1.898915 4.782196.283121 3.441658.198683 6.913551.264444 10.373093z" fill="#474640"/><path d="m19.493595 95.752113c-5.25044 3.91977-11.206994 4.949738-18.034462 4.271187-.459133-4.047844-.459133-8.072388-.459133-12.560119 5.445207-.572037 3.15187 4.265434 4.479321 6.738189 5.696351-.724907 11.281497-1.435669 17.1165-1.841156-.867504 1.334145-1.984865 2.363022-3.102226 3.391899z" fill="#b7b1a0"/><path d="m10.625 1c-.000735 12.069081-.376471 24.138163-1.026064 36.581768-.707012.39111-1.140166.407696-1.57332.424282-.997299-2.845367-2.96669-5.744057-2.814084-8.526359.507446-9.251713 1.777383-18.461602 2.771724-28.083609.766744-.396082 1.516744-.396082 2.641744-.396082z" fill="#8e8b7f"/><path d="m150 26.535349c-1.227234-.152329-3.475525-.70574-3.518524-1.396446-.315613-5.069569-5.150543-6.414206-7.42923-9.751643-1.232574-1.805272-1.403763-4.335209-1.729614-6.816768 4.441879 1.290818 8.559616 2.860165 12.677368 4.42951z" fill="#c1b69f"/><path d="m1 110.428467c1.946447-1.4357 3.892893-2.442932 7.154802-4.13089-2.747058-.803963-3.857539-1.128967-4.96802-1.453964-.063831-.383965-.127662-.767929-.191493-1.151894 2.726277-.589714 5.452555-1.17942 8.727915-1.463959 1.462268 3.809288 2.375454 7.313393 3.288639 10.817505-5.239535 4.564583-4.38826-1.558769-6.037467-3.956062-2.579377 2.445526-4.91796 4.66275-7.61546 6.895386-.358916-1.698944-.358916-3.413308-.358916-5.556122z" fill="#252523"/><path d="m150 71.550026c-4.949799 1.2435-9.883362 2.468185-14.855988 2.655502-2.634826.099266-5.337554-1.603904-8.076934-2.849281 2.45343-.478157 5.24234.051094 7.440887-.853867 5.086807-2.093803 9.887802-4.881996 15.148361-7.445495.343674 2.643127.343674 5.343147.343674 8.493141z" fill="#b4ac98"/><path d="m131.993286 136.99678c.001129-.443389.002274-.886779-.011444-2.054596-1.51622-8.004562-5.988625-15.151481-1.001205-22.722557 1.242538.718003 2.485077 1.436005 3.890915 2.419915-.478455 4.413932-1.719544 8.580734-1.590287 12.704597.124634 3.977181 1.663803 7.910057 2.650131 12.259132-.998062.396729-2.064743.396729-3.532318.021363-.402526-1.12619-.404159-1.87703-.405792-2.627854z" fill="#3b3931"/><path d="m9.570896 67.061012c-2.591219.312691-5.182438.625382-8.172276.93853-.39862-4.356441-.39862-8.713341.007985-13.534385 1.761613-.472382 3.116622-.480622 4.377787-.14069-1.287057 3.600708-2.480269 6.853248-3.673481 10.105785.462512.315415.925023.630821 1.387535.946236 1.261465-1.457386 2.522929-2.914772 4.069612-4.389458.666187-.01857 1.047155-.019836 1.678387-.014763.41709.001633.583919-.003067.769514.322479.025857.55066.03295.771069.050651 1.391594-.158165 1.724968-.326939 3.04982-.495714 4.374672z" fill="#c9bfae"/><path d="m150 12.625002c-4.117752-1.194345-8.235489-2.763692-12.677231-4.478199-.32399-.145162-.322769-.146827-.326645-.526314-.667968-2.459822-1.332046-4.540157-1.996124-6.620491 1.066666.000002 2.133347.000002 3.618988.35817 4.072983 3.119391 7.727005 5.880612 11.381012 8.641833z" fill="#b4ac98"/><path d="m150 9.508953c-3.654007-2.270173-7.308029-5.031394-10.981018-8.150785 3.557037-.358168 7.133041-.358168 10.981018-.358168z" fill="#aca592"/><path d="m142.275665 122.252899c2.240311-.63472 4.57576-.94355 7.31778-1.25264.406555 3.69265.406555 7.385559.406555 11.539109-2.54306-3.013108-5.086121-6.48684-7.724335-10.286469z" fill="#858175"/><path d="m119.338211 6.058916c-1.640541-1.503089-2.938797-2.951031-4.287636-4.728945 3.310715-.329971 6.671997-.329971 10.491356-.329971-.127395 2.16168-.71286 4.323359-1.42025 6.935239-1.848533-.758019-3.144867-1.289598-4.78347-1.876323z" fill="#c1b69f"/><path d="m5.878236 53.976295c-1.355009.00824-2.710018.01648-4.471631.024212-.406605-1.067176-.406605-2.133846-.406605-3.600513 1.350123-2.13929 2.700247-3.87859 4.48022-6.047951 1.774074-.736778 3.118299-1.043499 4.399064-.999538-1.261868 3.128986-2.460275 5.907291-3.729495 9.006107-.137726.752895-.20464 1.185291-.271553 1.617683z" fill="#d2caba"/><path d="m108.000305 137c.327843.779434.655678 1.558853.991608 2.669144-3.022507.330856-6.053101.330856-9.537804.330856-.418243-2.428391-.382385-4.856796-.029793-7.627472 1.710999 1.357147 3.105271 3.056595 5.096009 5.483048.388443-.095505 1.934211-.475541 3.47998-.855576z" fill="#34312b"/><path d="m38.571541 1c.389076 1.878189.883816 3.989684.188553 5.581381-1.119564 2.56307-2.945492 2.864576-4.567944-.645269-.585453-.989237-.901466-1.461525-1.21748-1.933812.010636-.750561.021271-1.501121.028618-2.62699 1.711071-.37531 3.425427-.37531 5.568253-.37531z" fill="#c9bfae"/><path d="m48.399994 140c-.73317-2.065811-1.066345-4.131638-1.132485-6.741623 1.09232-1.117218 1.917603-1.690262 2.742882-2.263306.662503 2.720826 1.325009 5.441666 1.988564 8.58371-1.065624.421219-2.132294.421219-3.598961.421219z" fill="#252523"/><path d="m1 73.416664c2.512357-.416664 5.024714-.416664 7.53707-.416664.187112.777397.374224 1.554787.561336 2.332184-2.438439.877937-4.876878 1.755874-7.706862 2.650818-.391544-1.371895-.391544-2.760781-.391544-4.566338z" fill="#cec4af"/><path d="m134.583344.999998c1.080734 2.080334 1.744812 4.160669 2.411773 6.621134-2.291794-1.724591-4.586487-3.829311-6.938141-6.277582 1.331909-.34355 2.72081-.34355 4.526368-.343552z" fill="#c1b69f"/><path d="m131.668289 137.082642c.32663.664962.328263 1.415802.330795 2.541992-.443527.375366-.887985.375366-1.665756.375366.114426-.943832.562195-1.88768 1.334961-2.917358z" fill="#36342c"/><path d="m50.028019 130.590851c-.842907.977264-1.66819 1.550308-2.759071 2.266464-3.079926-2.565338-4.999936-5.518082-4.421441-9.793724.162739-1.202805-1.047698-3.327065-2.171817-3.841911-5.066925-2.320633-6.351654-5.64959-3.290505-10.960747 2.511173-.948608 4.613072-1.463341 7.026596-2.059319.724583-.197189 1.137543-.313133 1.550507-.429077 1.590023 5.687866 3.419643 11.324509 4.651787 17.088875.490841 2.296318-.339527 4.875038-.586056 7.729439z" fill="#232220"/><path d="m33.961399 86.211365c.816139-.309151 1.632279-.618294 3.021751-.931687 1.398644.566063 2.223954 1.136361 2.893116 2.030548-.622081 1.841706-1.088016 3.35952-1.642303 5.165139 2.575603.410942 4.648335.723343 6.714195 1.076004 2.437229.416076 4.868515.866974 7.302376 1.302765-.152706-2.540123-.272007-5.08313-.490444-7.617592-.03714-.430939-.49955-.825218-.765148-1.679688.13517-1.628082.269996-2.812927.722019-3.810745 2.230106 4.503868 4.143017 8.820732 6.055931 13.137589-1.365955 5.124183-3.397312 9.55072-10.376591 9.07479-2.52613-5.905075-8.569671-5.222068-12.400543-8.291587.002281-.777886.003338-1.222397.23642-1.863984 1.765655-2.37297 1.546005-3.993347-1.227722-5.153411-.014313-1.045342-.028687-1.741745-.043057-2.438141z" fill="#8a8578"/><path d="m77.813591 116.267044c-2.670784-3.156273-5.34156-6.312553-8.3787-9.92337-.107689-5.052399 3.677742-2.617707 6.205459-3.523545 2.115425-.036239 3.806374-.086326 5.908806-.053817 2.08165.30587 3.751808.529152 5.444084 1.098121.700089.957268 1.303551 1.690872 2.06939 2.158585 2.800071 1.709999 2.611175 3.357269-.150917 4.768593-1.733048-1.42952-3.285668-2.569519-5.374062-4.102921-2.083923 3.487122-3.903992 6.532738-5.72406 9.578354z" fill="#9e9989"/><path d="m81.137665 102.683716c-1.690941.050087-3.38189.100174-5.64119-.175949-3.20652-1.706871-5.844673-3.087525-9.495827-4.998322v9.520485c-3.875968 1.408539-6.40398.15432-6.778289-3.899544-.219052-2.372345.573906-4.838134 1.247707-7.669792.728981-.418083 1.121857-.428253 1.515583-.443779.000851-.005356-.003887.009522-.00357.394104.322071 2.033783.643833 3.682976.939483 5.198342 1.174751-2.156868 2.145081-3.938408 3.344559-5.452385 5.109947 2.687332 9.990745 5.107086 14.871544 7.52684z" fill="#605d53"/><path d="m77.855583 116.521355c1.778076-3.299927 3.598145-6.345543 5.682068-9.832665 2.088394 1.533402 3.641014 2.673401 5.360893 4.490242.166817 1.716446.166382 2.756058-.077881 4.049225-.444244 1.389107-.644653 2.524643-1.254791 3.705498-3.361999-.372559-6.314277-.790428-9.266548-1.20829-.133919-.316567-.267837-.633133-.443741-1.20401z" fill="#aca592"/><path d="m78.282227 118.107666c2.969368.035561 5.921646.45343 9.571289.975594.879615.21994 1.061851.335571 1.244079.45121-2.141449 3.503929-4.28289 7.00785-6.763763 10.637054-1.58252-3.810333-2.825615-7.745949-4.051605-12.063858z" fill="#686559"/><path d="m34.99453 96.00029c3.8321 2.73613 9.875641 2.053123 12.006668 8.013885-.165348.68425-.488682 1.018189-.925465 1.555245-.526409.319061-.939369.435005-1.83173.307739-2.208728-1.458404-4.219349-2.421905-5.592178-3.9561-1.52282-1.701813-2.463265-3.924744-3.657295-5.920769z" fill="#858175"/><path d="m61.984802 95.022171c-.392879.01017-.785755.02034-1.469703.031776-.836411-.030349-1.381752-.061965-2.334652-.131919-2.320469-4.355187-4.23338-8.672051-6.480435-13.322144-.334148-.333237-.538044-.552826-.474888-.847519.063767-.695305.064377-1.095924.366574-1.541366.500965-.091126.700336-.137436 1.20211-.044594 2.157238 5.095146 3.814358 10.151024 8.057598 13.769508.562077.479317.764439 1.38047 1.133396 2.086258z" fill="#423f36"/><path d="m66.390778 107.019188c-.39013-2.730591-.39013-5.471916-.39013-9.509743 3.651154 1.910797 6.289307 3.291451 9.071343 4.984474-1.959358 1.232048-5.744789-1.202644-5.996605 3.770333-.760254.498153-1.527367.62117-2.684608.754936z" fill="#8a8578"/><path d="m99.305664 15.341402c.917351-1.151332 1.634155-2.601956 2.799675-3.382947 1.694016-1.135128 3.711609-1.787376 5.591209-2.645545.414315 2.08685 1.27356 4.206999 1.120575 6.251398-.160072 2.138973-1.293052 4.205141-2.357238 7.359873 2.698105-1.000443 4.154869-1.939854 5.637214-1.982145 1.601937-.045704 3.936249.221407 4.713555 1.269708 2.579155 3.478323 5.783729 4.036846 9.90271 3.028723 1.180648-.723921 2.074768-1.207697 3.511306-1.950512 2.283722.065563 4.025025.390164 5.766343.714764.001449.443647.002914.887298-.242051 1.975719-.372528 2.58981-.671478 4.542191-.589218 6.478375.177887 4.186428.551163 8.364551.844528 12.54607-.000717.748855-.001419 1.497711-.391494 2.618229-5.786911-1.020462-11.095856-1.711609-16.455948.841091-2.525742 1.202865-5.380158 1.71558-8.120743 2.202293-.666504-1.120567-1.297913-1.902401-2.061844-2.970962-.210129-.700409-.287742-1.11409-.021042-1.713608 3.207238-3.822063 1.833199-6.985989-.800125-10.347641.036598-.770721.121971-1.208778.562256-1.628368 4.691322 2.290844 9.151276 3.260627 13.712006.809143 1.000244-.537648 2.291755-1.766819 2.278679-2.660412-.018517-1.266302-1.098038-3.588576-1.767685-3.6043-5.344864-.125482-10.603402-4.399013-16.288964-.739847-2.618133-4.3113-4.980919-8.3902-7.343704-12.469099z" fill="#cec3ab"/><path d="m111.071182 51.005226c2.70549-.825443 5.559906-1.338158 8.085648-2.541023 5.360092-2.5527 10.669037-1.861553 16.455185-.466663-.284394 2.092971-.957382 4.183174-1.630387 6.273376-1.62709-.798622-3.18576-1.865749-4.904724-2.303894-1.19722-.305161-2.698471.025963-3.914169.476704-1.954994.724853-3.78627 1.783386-5.906776 2.34954-2.572907.926964-.531441 8.152127-6.920922 4.27364-.318725-.517124-.324852-.959793-.152176-1.961681-.452972-1.104218-1.084755-1.649228-1.836181-2.502205-.259873-1.398163-.400093-2.48835-.223969-3.57367.527062-.004799.73777-.014465.948471-.024124z" fill="#cac0a8"/><path d="m136.39798 45.006691c-.687073-4.183327-1.060349-8.36145-1.238236-12.547878-.08226-1.936184.21669-3.888565.589386-6.145634 3.715592 2.958235 7.393723 5.907005 5.63971 11.796459-.600235 2.0154.821304 4.632931 1.436096 7.525738-2.281357-.237041-4.157303-.431957-6.426956-.628685z" fill="#cac0a8"/><path d="m135.993393 23.59284c-1.743698.087279-3.485001-.237322-5.60788-.576456-.321014-1.814005-.584518-3.721378-.039077-5.359388.215621-.647564 3.184967-1.148171 3.280456-.946923.980591 2.066342 1.628296 4.29065 2.366501 6.882767z" fill="#cac0a8"/><path d="m19.886333 95.889305c.724623-1.166069 1.841984-2.194946 3.093609-3.517433.134268-.293594.534869-.372742 1.000178-.088501.463215 3.340919.396948 6.399361.481229 9.453651.057719 2.091645.325058 4.177506.508509 6.576394.034096.722953.058371 1.135459.082647 1.547973-.787302.355484-1.574607.710961-2.682361 1.124825-.386213-3.401162-.301775-6.873055-.584896-10.314713-.129891-1.578949-.981732-3.098511-1.898915-4.782196z" fill="#525048"/><path d="m15.276791 113.018845c-1.178133-3.477692-2.091319-6.981797-3.146193-10.821747 2.578928-.426201 4.896063 2.642486 4.598078 6.057472-.113697 1.303009-.43556 2.587845-.661667 4.268356-.174499.414765-.349885.442131-.790218.495919z" fill="#333029"/><path d="m25.389439 109.82711c-.36121-.378235-.385485-.790741-.12484-1.643028 1.093105-.694366 1.901291-.948967 2.71262-.889923-.00652.731316-.016184 1.148987-.025849 1.566666 0 0 .077214.051124-.112766.141815-.414341.179855-.616886.304451-.797607.464508-.43821.108558-.87642.217117-1.651558.359962z" fill="#686559"/><path d="m27.245708 109.572617c-.02399-.265526.178555-.390122.578389-.526001.175468-.04673.120851.328147.101249.514518-.019601.186371-.474922.116959-.679638.011483z" fill="#525048"/><path d="m98.956085 15.275557c2.712364 4.144744 5.07515 8.223644 7.714997 12.916067.747818 2.340955 1.218574 4.06839 1.689338 5.795826-.085373.438057-.170746.876114-.270408 2.050499-.048333 3.832412-.082367 6.928493-.263749 10.335846-1.215034 1.749862-2.282737 3.188465-3.42955 4.240028-.228332-1.159313-.377563-1.931587-.560615-3.06295-1.344742-5.241951-3.265297-9.723995-8.109139-12.689659-2.814216-4.640957-5.822639-8.317442-12.172302-6.605681-1.77932-.05747-3.152367-.042042-4.901863-.1002-1.394013.009224-2.411591.092035-3.828819.098602-4.032563-.400437-5.236199 1.348253-4.885743 4.780065-1.750518.572422-3.126724 1.107228-4.438522 1.617001 1.799233 1.957188 3.131119 3.406006 4.28273 5.157783-1.155578 1.576874-2.130874 2.850792-3.415787 4.184399-1.375564.975952-2.441509 1.89222-3.870277 2.870789-1.455753 1.749401-2.548687 3.436496-3.901718 5.184627-.08083.690453.098438 1.31987.30162 2.359642-.003357 1.770905-.030632 3.131447-.293083 4.77459-.389168 1.749901-.543159 3.217201-.935753 4.437477-2.069275-3.555283-1.394916-8.534771-6.46894-9.967678.252887-1.0933.462631-1.86937.792427-3.027012.398079-2.466167.676113-4.550762 1.012336-7.094639.425389-5.126003.79258-9.792728 1.451416-14.622431 3.308499-3.622259 4.679486-8.89998 10.594254-9.072641 1.471359-.306589 2.778351-.879606 4.06633-1.600544-.019028-.147921-.176582-.401196.20198-.340813 1.141106.005637 1.903649-.04911 3.006455.011088.792358.264023 1.244453.413097 1.865784.851663 1.28141 1.204155 2.393577 2.118821 3.505737 3.033488.759804-1.094857 1.66465-2.118607 2.244652-3.301615.824241-1.681187 1.409599-3.479491 2.097023-5.227757 5.523201.649431 11.046402 1.298862 16.919189 2.01414z" fill="#3b3931"/><path d="m64.884583 19.569477c-5.750416.439091-7.121403 5.716812-10.770783 9.191391-5.822609-.95793-9.924694 2.600002-10.113113 8.653702-2.204663 7.468906-3.761967 14.49612-.141255 21.632622.422035.831836-.161007 2.173603-.310001 3.580207 2.30027.488228 4.372227.927998 6.440025 1.763867-.949432 1.45375-2.21188 3.555023-2.782978 3.381454-2.052189-.62368-5.000107-1.60437-5.577946-3.190323-2.237831-6.142005-3.761943-12.552124-5.339752-18.914989-.171467-.691479.870621-2.2915 1.622814-2.504089 4.32066-1.221077 3.060429-4.681729 2.985188-7.415196-.081917-2.976276-1.294674-5.515293-4.895409-5.749403 0 0-.001373.00128-.016952-.391388-.044399-2.641495-.34816-4.929231-.036717-7.129904.451752-3.192075 1.347916-6.321256 2.054535-9.477263 2.759293-.961364 5.518585-1.922728 8.641716-2.940113-.749103 1.259014-1.882198 2.557669-2.96854 3.894322-.852211 1.048576-1.646603 2.144148-2.466679 3.218842 1.354947.607983 3.130791 2.089229 3.992508 1.673893 3.882088-1.871124 7.50499-4.279991 11.906853-6.670983 2.419643-1.177123 4.153755-2.178277 5.887867-3.179431.149181-.287682.349457-.533781.80101-.869432.82296.334235 1.445725.7996 2.133339 1.950536-.085441 2.089165-.235725 3.492759-.374512 4.788977 1.169548 1.025904 2.276215 1.996648 3.382882 2.967391 0 0 .157554.253275-.145531.324622-1.504906.517793-2.706741.964241-3.908569 1.410688z" fill="#c4bba8"/><path d="m81.738319 13.089989c-.388847 1.919694-.974205 3.717998-1.798446 5.399185-.580002 1.183008-1.484848 2.206758-2.244652 3.301615-1.11216-.914667-2.224327-1.829333-3.375732-3.372235.24298-1.53589.525184-2.443545.807388-3.351198 2.104294-.716265 4.20858-1.43253 6.611442-1.977367z" fill="#514e43"/><path d="m69.317245 17.89455c-1.485229-1.031126-2.591896-2.00187-3.761444-3.027774.138787-1.296218.289071-2.699812.442414-4.484585 1.946274.737363 3.889496 1.855903 5.916435 3.675256.078743 1.711623.073769 2.722434.068794 3.733244-.76255.054749-1.525093.109496-2.666199.103859z" fill="#cec4af"/><path d="m72.3237 17.905638c-.335281-1.125757-.330307-2.136568-.324364-3.526503.841179-.115701 1.681389.147722 2.82457.549683.020767 1.046191-.261437 1.953846-.673653 3.200245-.5821.189672-1.034195.040598-1.826553-.223425z" fill="#c4bba8"/><path d="m34.995758 95.666901c1.192802 2.329414 2.133247 4.552345 3.656067 6.254158 1.372829 1.534195 3.38345 2.497696 5.280556 4.037346-1.934124.839187-4.036023 1.35392-6.532528 1.928848-1.446598-.015152-2.498589-.090508-3.95797-.58992-1.415829-3.380066-2.424274-6.336075-3.222822-9.500351.068352-1.071205-.073195-1.934136-.215605-3.130478-.008869-.777886-.01687-1.222366.160902-1.852196-.243196-.744316-.672169-1.303284-1.137468-2.134071-.329708-.717697-.623089-1.163567-.91647-1.609429 1.706719-.954971 3.413435-1.909942 5.485565-2.862175.379784.699128.394158 1.395531.406544 2.823426.331219 2.143654.664421 3.555793.997624 4.967941-.001057.444504-.002114.889015-.004395 1.666901z" fill="#7a776c"/><path d="m30.009163 98.005249c1.008446 2.956009 2.016891 5.912018 3.043808 9.221161-1.438442.762932-2.895365 1.172722-4.726944 1.608459-.364992-.391723-.355328-.809394-.341738-1.926529.012285-3.432838.020645-6.166221.361515-8.90216.776125-.002014 1.219742-.001473 1.663359-.000931z" fill="#6e695f"/><path d="m108.041473 136.684296c-1.586937.695739-3.132705 1.075775-3.521148 1.17128-1.990738-2.426453-3.38501-4.125901-5.149803-5.840165-.370522-.014801-.370522-.015411-.37188-.375396-.333862-1.453263-.666367-2.54654-.998871-3.639817.190384-.537269.38076-1.074539 1.089897-1.873413.982209-.883423 1.445664-1.505249 1.909111-2.127067 2.254326-6.879563 4.508637-13.759125 7.064255-20.937569 2.945519.68264 5.589737 1.664154 8.581024 2.715332 1.070091.234757 1.793099.399864 2.874863.662338 3.869507 1.847809 7.380257 3.598259 11.176361 5.564255-4.702065 7.786629-.22966 14.933548 1.286743 22.605576-2.139938-2.182755-4.294922-4.757386-6.643905-7.56379-2.038025 1.743645-3.847931 3.292137-6.306595 4.717232-1.967293-2.279724-3.285836-4.436073-4.604378-6.592415-.347473.129868-.694946.259743-1.04242.38961.307343 1.574463.614678 3.148926.805878 4.128418-1.886848 1.567292-3.538574 2.939286-5.190307 4.311295-.305886.789536-.611771 1.579071-.958825 2.684296z" fill="#36342c"/><path d="m107.942863 101.651398c-.733856.375763-1.476669.371887-2.927101.359176-1.156181-.012993-1.604751-.017143-2.187118-.329788-.339592-1.399567-.545387-2.490639-.458161-3.675629.677697-.744751 1.062363-1.395591 1.471123-2.460517.060776-1.796257.097458-3.178429.342865-4.378434.580711.700318.952698 1.218468 1.550118 2.050644.202346-1.141571.311607-1.757972.609436-2.13192.426597.809601.664619 1.376725.902641 1.943856.218201 1.104034.436401 2.208069.66642 3.97863.034576 1.107536.05735 1.548553.080109 1.989563-.019768.758262-.039528 1.516525-.050332 2.654419z" fill="#58544a"/><path d="m107.45163 92.768265c-.442986-.30661-.681008-.873734-1.118424-1.990914-.213798-.962204-.228187-1.374366-.046554-2.000892.277382-.778267.358718-1.342163.497169-2.293831.075699-1.434281.094292-2.480797.449257-3.520729.560501.015053.784637.023521 1.008774.031982 0 0 .449104-.071068.630752.32029.18116 1.16127.180657 1.931183.180161 2.701095-.017922.441246-.035843.882485-.053871 1.654992-.447518 1.833335-.894913 3.335411-1.547264 5.098007z" fill="#817c70"/><path d="m108.259399 98.937439c-.288963-.38147-.311737-.822487-.308448-1.593887.208923.291191.391792.912773.308448 1.593887z" fill="#817c70"/><path d="m109.335793 85.969215c-.282532-.723861-.282029-1.493774-.23597-2.64743.62709.101822 1.208611.587387 1.855263 1.369911-.402008.608467-.869133.919968-1.619293 1.277519z" fill="#9c9683"/><path d="m103.167953 105.143639c-2.124473 2.27317-4.248947 4.546341-6.758682 6.516029-1.917106-3.087204.209763-7.685066-4.459976-9.136482 1.710785-.266579 3.356598-.539406 4.795616-.113503 1.509278.446709 2.820236 1.563523 4.544655 2.428009.763725.056984 1.200653.073426 1.697403.144303.059822.054451.180984.161644.180984.161644z" fill="#605d53"/><path d="m89.064499 114.974594c.000427-1.039604.000862-2.079216.014465-3.506142 2.594841-2.088165 2.783737-3.735435-.016334-5.445434-.765839-.467713-1.369301-1.201317-1.716088-2.292183 1.081894-.510239 1.832596-.541191 2.701088-.237946 1.71534 3.722123 3.312882 7.110054 4.910424 10.497986-.744149.98999-1.488297 1.979981-2.620881 2.774613-1.349845-.727204-2.311256-1.259049-3.272674-1.790894z" fill="#8a8578"/><path d="m95.184052 113.827858c-1.82354-3.224915-3.421082-6.612846-4.833008-10.43335.604522-.478508 1.023445-.524452 1.44236-.570396 4.82563 1.15049 2.698761 5.748352 4.283714 8.947586-.186951.908073-.42701 1.400612-.893066 2.05616z" fill="#6e695f"/><path d="m88.820663 115.228157c1.205254.278282 2.166665.810127 3.233155 1.687416-.699181 1.045822-1.503441 1.746201-2.631958 2.532738-.506493-.02948-.688729-.145111-1.158615-.410362-.087235-1.285149.113174-2.420685.557418-3.809792z" fill="#9e9989"/><path d="m97.774628 128.246521c.557647.846954.890152 1.940231 1.223709 3.393494-.482254-.809067-.965561-1.978119-1.223709-3.393494z" fill="#34312b"/><path d="m102.962448 101.989273c.448563.004158.897133.008308 1.681809.009636-.102395.919083-.540902 1.840988-1.22786 2.953812-.248444.190918-.369606.083725-.44191-.29818-.120269-.819168-.168251-1.256439-.165611-1.936691.050621-.242981.153572-.728577.153572-.728577z" fill="#605d53"/><path d="m100.694855 124.067184c-.159523.554352-.622978 1.176178-1.390488 1.865258.159485-.554428.623024-1.17611 1.390488-1.865258z" fill="#34312b"/><path d="m51.161968 81.047058s.203896.219589.220844.365814c-.117874 1.331055-.2527 2.5159-.667472 4.310395-3.532891 4.245811-7.080197 3.195655-10.682927 1.263076-.825309-.570304-1.650619-1.140602-2.750713-1.845916-2.032474-1.13945-3.790161-2.143898-5.863819-3.475876-.556732-1.492485-.514837-2.824074-1.08655-3.793946-2.659136-4.511055-10.490663-5.161453-9.394191-12.549713.009363-.063087-.582884-.215461-.894244-.326149.607607-1.150104 1.215214-2.300209 2.114083-3.958267 2.472866-3.391971 4.654468-6.275989 6.836071-9.160004.004802.780789.009603 1.561577-.288308 2.924119-.77666 2.11671-1.250606 3.651664-2.064365 5.280296-.992063 1.799015-2.659794 3.966263-2.128891 5.133423 3.048418 6.70179 9.724312 9.161567 15.715309 12.343712.124115.065933.509628-.36026 1.076161-.372193 2.421257 4.183678 6.138195 4.027497 9.859012 3.861229z" fill="#9e9989"/><path d="m19.971441 65.347511c.382815-.24208.975062-.089706.965699-.026619-1.096472 7.38826 6.735055 8.038658 9.394191 12.549713.571713.969872.529818 2.301461.703627 3.735589-1.507563.611686-2.948174.9542-4.742661.892753-1.001135-1.417908-1.648399-2.431839-2.469799-3.756363-2.381519-1.129158-4.588905-1.947731-6.823341-3.130676-.038345-.607697-.049641-.851021-.108994-1.378967-.119129-.666947-.1902-1.049271-.261272-1.431588 1.090364-2.367027 2.180731-4.734046 3.34255-7.453842z" fill="#8d887b"/><path d="m29.040758 51.529289c-2.229311 3.231198-4.410913 6.115216-6.859602 9.215706-1.119585-.804516-1.972086-1.825508-3.093492-3.298782-.176026-1.112515-.083144-1.772736.350044-2.481373 1.782446-2.651291 3.224586-5.254166 4.861866-8.001354.435497-.370529.613502-.638218.774187-1.186703.045034-.239326.144596-.716091.144596-.716091 4.226704.183838 5.380261 2.310596 3.822401 6.468597z" fill="#d2caba"/><path d="m28.013294 98.008728c-.00836 2.733391-.01672 5.466774-.03215 8.585976-.815254.640411-1.62344.895012-2.726364 1.278938-.468373-1.959114-.735712-4.044975-.793431-6.13662-.084281-3.05429-.018014-6.112732-.279014-9.481849.921829-1.204354 2.10675-2.09626 3.609878-3.086266.611588.347763.904969.793633 1.250309 1.805428.346661 1.052406.64136 1.538864.93606 2.025329.008004.444474.016005.888954-.302278 1.750336-.77186 1.364174-1.217436 2.311455-1.66301 3.258728z" fill="#605d53"/><path d="m16.938221 74.51757c.011295.243317.022591.486641.107779 1.452996 1.51752 3.982742 3.723871 5.019615 6.950635 3.082603.647263 1.013939 1.294527 2.02787 1.927205 3.390251-1.452132 1.016282-2.889676 1.684105-4.943716 2.530426-2.093691-.198013-3.570885-.574523-5.022886-1.394012.343789-3.316071.662385-6.189171.980983-9.062264z" fill="#686559"/><path d="m19.097401 55.013252c-.092881.660225-.185763 1.320446-.331534 2.305405-.052891.324734-.027605.438827-.306408.552101-2.193077 2.0387-4.33519 3.88464-2.698589 7.048935-1.870329.831497-3.740658 1.662994-5.900479 2.317909-.12072-1.501442.048054-2.826294.529444-4.640934 1.09417-1.177398 1.875723-1.865005 2.943155-2.719776 1.112262-1.716389 1.938647-3.26561 3.139079-4.826286 1.124475-.020085 1.874903-.028717 2.625332-.037354z" fill="#90897b"/><path d="m16.890163 74.232941c-.27054 3.157722-.589136 6.030822-1.176465 9.352218-.268733.448296-.754871.483094-.754872.483094-.4873-.587555-.974599-1.175118-1.84058-2.251038-.632598-1.598785-.886515-2.709213-1.140432-3.819641 1.363782-1.635246 2.727563-3.270485 4.371212-5.05098.350937.237076.422008.6194.541137 1.286347z" fill="#b5ae9e"/><path d="m11.63133 78.101746c.600401 1.006256.854318 2.116684 1.26233 3.534568-.486322 1.872811-1.126738 3.438172-1.81286 5.115242-2.823007-2.813301-2.752897-4.166191.55053-8.64981z" fill="#d2caba"/><path d="m14.919081 84.402756c.039746-.334503.525884-.369301.769424-.374619 1.720734.371186 3.197928.747696 5.001932 1.126915-.464128.913758-1.255068 1.824814-2.768238 2.790459-1.78877.054565-2.855311.054527-3.921852.054489.292996-1.087578.585992-2.175163.918734-3.597244z" fill="#cec4af"/><path d="m16.129892 64.852585c-2.005623-3.097187.13649-4.943127 2.376904-6.947571-.451868 2.240814-1.229876 4.560642-2.376904 6.947571z" fill="#d2caba"/><path d="m13.821523 88.201324c1.245365-.201286 2.311906-.201248 3.778399-.201423-.816624 2.684051-2.192049 3.650627-3.778399.201423z" fill="#d2caba"/><path d="m104.475822 51.000862c1.067704-1.438602 2.135407-2.877205 3.507164-4.58799.304047-.27219.625908-.245109.625908-.245109.077607.413681.15522.827362.259652 1.850929.33049 1.40852.634155 2.207153.937812 3.005787.140229 1.090191.280449 2.180378.427369 3.817467.046867 1.073303.087051 1.599712.127235 2.126117-.381584.481411-.763161.962822-1.572723 1.917336-.870461 2.028808-1.312928 3.584514-2.063675 5.003349-1.167138-.35395-2.025986-.571029-3.110672-.927074-.655747-.441662-1.085663-.744358-1.559693-1.259495-.044121-.212444.004631-.643646.308289-.901074.453666-2.120037.60366-3.982643.719909-6.171497-.732528-1.420631-1.431304-2.515022-1.693321-3.639011 1.320084-.016312 2.203415-.003025 3.086746.010265m.676575 9.520828c.184952.115006.369904.230011.554848.345017.033516-.142651.135132-.376465.088249-.411488-.165192-.123405-.381325-.178608-.643097.066471z" fill="#474640"/><path d="m107.032852 64.02562c.442459-1.555707.884926-3.111413 1.629646-4.85965.411057 5.554947.51986 11.302429.714661 17.444191-.103439.430496-.292877.466705-.897713.15348-3.611702-4.241531-1.126457-8.606537-1.446594-12.738021z" fill="#817c70"/><path d="m119.640533 74.014343c-.917945 2.876328-1.400711 6.928086-6.466156 4.271179 1.917679-1.609397 4.010048-2.934791 6.466156-4.271179z" fill="#b4ac98"/><path d="m124.622375 71.005249c-.715599.987701-1.811622 1.978516-3.266006 2.980362.722946-.985062 1.804253-1.981155 3.266006-2.980362z" fill="#b4ac98"/><path d="m110.634003 56.967876c-.313225-.526218-.353409-1.052627-.280625-1.817958.744728.306079 1.376511.851089 1.82705 1.623237-.545289.216271-.90934.205403-1.546425.194721z" fill="#c5bba3"/><path d="m35.974403 30.373024c3.627705-.140194 4.840462 2.398823 4.922379 5.375099.075241 2.733467 1.335472 6.194119-2.985188 7.415196-.752193.212589-1.794281 1.81261-1.622814 2.504089 1.577809 6.362865 3.101921 12.772984 5.339752 18.914989.577839 1.585953 3.525757 2.566643 5.577946 3.190323.571098.173569 1.833546-1.927704 2.792492-3.711502.339733-1.504772.665794-2.283394 1.242928-2.763046.076801 3.761269-.097466 7.223572-.323685 10.927505-.051945.241631-.190933.716004-.577301.724938-6.3092.267036-9.145065-4.112663-12.408638-8.253975-.688824-.768066-1.311474-1.23135-2.18264-1.69595-.248509-.001312-.745518-.004985-.745518-.004985-1.192013-9.559201-2.384026-19.118397-3.564022-28.581234 1.492016-1.213898 2.99968-2.440522 4.534309-4.041447z" fill="#bdb4a4"/><path d="m34.62973 62.936253c.374386.059452.871395.063125 1.187508.368358.937809.769097 1.559505 1.232956 2.181206 1.696816 3.197403 3.836525 6.033268 8.216224 12.555168 8.333931.741142.631042.883217.886276.973392 1.383468-.095943.569893-.149444.896286-.4878 1.387711-.099964 1.16082.07547 2.155052.250904 3.149292-.000607.400612-.001217.801231-.064984 1.496536-3.783973.460961-7.500911.617142-10.069862-3.878082-2.372395-2.681206-3.897675-5.617653-6.302742-6.886513-4.309038-2.273353-6.997141-5.283272-7.87233-10.000561.473946-1.534954.947892-3.069908 1.72023-4.79623 2.158984 2.362019.056462 7.560036 5.92931 7.745274z" fill="#aea998"/><path d="m13.047112 60.044056c-.781554.687607-1.563107 1.375214-2.667885 2.1525-.330318-.130741-.337411-.35115-.467282-1.021698-.443611-.608246-.70794-.52784-.915764-.208927-.380968.001263-.761936.002529-1.439026-.347981.794869-3.080421 1.885859-5.80907 3.221038-8.747711 1.314287-2.406406 2.384387-4.602813 3.454488-6.799225.542332-1.146122 1.084661-2.292247 1.646806-3.762058.685613-.751022 1.351409-1.178356 2.409865-1.968639 1.169047-.666752 1.945437-.970566 2.721827-1.27438 0 0 .449234.083035.672146.130352.22513.680958.22735 1.314594-.090403 2.432011-2.111088 4.75283-3.902206 9.021881-6.016134 13.413406-1.058431 2.082432-1.794053 4.042393-2.529676 6.00235z" fill="#d8d0be"/><path d="m37.754639 12.79771c-.459019 3.358462-1.355183 6.487643-1.806935 9.679718-.311443 2.200673-.007682 4.488409.037361 7.129273-3.157043-.742884-6.330312-1.877802-9.787561-3.114287 2.399159-5.809705 9.607634-9.314571 6.804773-17.09856 1.499928.804638 3.002343 2.00302 4.752362 3.403856z" fill="#bdb4a4"/><path d="m15.899596 53.919231c1.79112-4.26905 3.582238-8.538101 5.705976-12.970737 1.217022 1.157253 2.101425 2.478088 3.299307 3.955559.313478.156639.213916.633404-.036932 1.006653-.506649.595012-.677536.869628-.76351 1.19709-1.442143 2.602878-2.884283 5.205753-4.666731 7.857048-1.090734.057045-1.841162.065677-3.012306-.200779-.455744-.465-.490774-.654915-.525804-.844834z" fill="#a49d8b"/><path d="m32.719048 4.153658c.571636.320929.887649.793217 1.246711 1.554626-.249019.438448-.498974.640004-.840614 1.095797-.309773-.698348-.485748-1.598706-.406097-2.650423z" fill="#bdb4a4"/><path d="m106.724564 63.888748c.628425 4.268356-1.85682 8.633362 1.467094 12.904297.080429 2.041313.033249 3.703774.018135 5.783539-.192078.408836-.416214.400368-1.19667.099914-1.264176-2.392158-1.972023-4.49234-2.767685-7.033828-.193779-4.474884-.299744-8.508454-.405709-12.542031.858849.21708 1.717697.434159 2.884835.788109z" fill="#58544a"/><path d="m9.942745 43.001831c-1.344226.306713-2.688451.613434-4.361791 1.006035.455352-1.765423 1.23982-3.61673 2.234475-5.734924.643341-.283478 1.076495-.300064 1.833939-.340126.978423 1.07793 1.632557 2.179336 2.049574 3.754409-.743477.753979-1.249837 1.034291-1.756197 1.314606z" fill="#bdb4a4"/><path d="m20.820971 37.836662c-.586182.533089-1.362572.836903-2.445647 1.202019-.144535-.5051.017618-1.071506.397301-1.843746.764397.000263 1.311268.206356 2.048346.641727z" fill="#b5ae9e"/><path d="m62.61227 8.995137c-1.350418 1.002712-3.08453 2.003866-5.214084 3.005495-.991108-5.063833 2.579887-2.888207 5.214084-3.005495z" fill="#cac0a8"/><path d="m9.879284 43.352509c.569821-.630993 1.076181-.911305 1.839344-1.326889.770616.864959 1.284432 1.865192 2.15615 2.955413-.712198 2.286393-1.782298 4.4828-3.535098 6.874886-1.82816.191181-2.973618.186684-4.119077.182182 1.198406-2.778305 2.396813-5.55661 3.658681-8.685592z" fill="#928c7d"/><path d="m109.419449 134.000092c1.232582-1.372101 2.884308-2.744095 4.771156-4.311387-.1912-.979492-.498535-2.553955-.805878-4.128418.347474-.129867.694947-.259742 1.04242-.38961 1.318542 2.156342 2.637085 4.312691 4.264244 6.649483-.957466 1.035171-2.134224 2.363922-3.512421 2.623627-1.692176.318863-3.55265-.255417-5.759521-.443695z" fill="#34312b"/><path d="m6.149789 52.358608c1.216273-.316005 2.361731-.311508 3.945702-.29269-.652477 2.742962-1.743467 5.471611-2.823555 8.569336-1.250561 1.826462-2.512025 3.283848-3.77349 4.741234-.462512-.315415-.925023-.630821-1.387535-.946236 1.193212-3.252537 2.386424-6.505077 3.673481-10.105785.160757-.780564.227671-1.21296.365397-1.965859z" fill="#858175"/><path d="m9.246445 60.972267c-.04244-.325249.221889-.405655.646736-.127659-.062817.124592-.229646.129292-.646736.127659z" fill="#d2caba"/><path d="m39.876266 87.310226c3.758877 1.608696 7.306183 2.658852 10.838738-1.143707.545536.244805 1.007946.639084 1.045086 1.070023.218437 2.534462.337738 5.077469.490444 7.617592-2.433861-.435791-4.865147-.886689-7.302376-1.302765-2.06586-.352661-4.138592-.665062-6.714195-1.076004.554287-1.805619 1.020222-3.323433 1.642303-5.165139z" fill="#969181"/><path d="m35.232178 93.802917c-.565228-1.215065-.89843-2.627204-1.229706-4.421913 2.775711.428566 2.995361 2.048943 1.229706 4.421913z" fill="#858175"/><path d="m102.828644 101.680786c.133804.308487.030853.794083-.283005 1.114731-.736862.880974-1.159866 1.441307-1.582863 2.00164-1.397629-.823951-2.708587-1.940765-4.217865-2.387474-1.439018-.425903-3.084831-.153076-4.795616.113495-.574806.346878-.993729.392822-1.716049.53714-1.054108.129326-1.80481.160278-2.908814.324829-2.023468-.089683-3.693626-.312965-5.775276-.618835-5.29229-2.50235-10.173088-4.922104-15.348625-7.91407-2.483585-4.95485-3.000408-.546059-4.218769.174095 0 0 .004738-.014878.003887-.009522-.369804-.700432-.572166-1.601585-1.134243-2.080902-4.24324-3.618484-5.90036-8.674362-8.175121-14.15123-.337643-1.30114-.255356-2.081398.091953-2.902954.92284-.661278 1.580654-1.281265 2.563427-1.879852.758427.007362 1.191898-.006668 1.871544-.011185.24617.009506.73867.023934.874603.314423.398819 1.091667.661701 1.89283.744324 2.876465.222614.736091.625488 1.289711 1.073013 2.194358.085388 1.056839.126122 1.762658.271897 2.783394.983314 1.167633 1.861583 2.020348 2.957889 2.997315.431378.378753.644726.633255.931309 1.191215.716102.747589 1.358971 1.191719 2.193085 1.816979.686103.340995 1.180946.500885 1.917724.901901 2.079567.145622 3.917206.050117 6.007584.193314 3.447944 1.416282 6.643143 2.593856 10.117859 4.001731 2.095016-.212181 3.910537-.654663 5.998993-1.286521 1.7071-1.145043 3.141273-2.100716 4.983368-3.039765 3.516555-.633629 6.625183-1.283874 9.736389-1.601623.005233.775833.007889 1.219146-.256745 1.708877-.43779.67804-.608276 1.30967-.778762 1.941292-.036675 1.382164-.073357 2.764336-.418129 4.652718-.698777 1.158256-1.089455 1.810287-1.480141 2.46231.205788 1.091072.411583 2.182144.751175 3.581711z" fill="#39362e"/><path d="m61.982079 95.410919c1.218044-1.104736 1.734867-5.513527 3.989311-.826248-.904747 2.086182-1.875077 3.867722-3.049828 6.02459-.29565-1.515366-.617412-3.164559-.939483-5.198342z" fill="#423f36"/><path d="m52.503212 75.923019c-.082283.780266-.16457 1.560524-.12933 2.722512-.081848.428032-.281219.474342-.782184.565468-.477024-.94941-.652458-1.943642-.256546-3.13202.770248-.181411.969154-.168685 1.16806-.15596z" fill="#8a8578"/><path d="m108.715332 34.005917c-.825676-1.745903-1.296432-3.473338-1.78891-5.581892 5.408508-4.27269 10.667046.000841 16.01191.126323.669647.015724 1.749168 2.337998 1.767685 3.6043.013076.893593-1.278435 2.122764-2.278679 2.660412-4.56073 2.451484-9.020684 1.481701-13.712006-.809143z" fill="#d5c9b0"/><path d="m108.953201 45.981926c-.344307.185837-.666168.158756-.822883.119678-.122673-3.135162-.088639-6.231243.008461-9.730991 2.647621 2.625324 4.02166 5.78925.814422 9.611313z" fill="#b9af9b"/><path d="m110.122711 51.02935c-.62001-.803505-.923675-1.602138-1.121643-2.72393.737106.458675 1.368515 1.240509 2.035019 2.361072-.175606.348393-.386314.358059-.913376.362858z" fill="#b9af9b"/><path d="m79.029236 28.228922c1.373054-.015431 2.746101-.030859 4.607056.345854 1.571891 1.365278 2.499031 2.795572 3.76757 3.230804 4.956886 1.700707 4.970161 4.456761 2.056862 7.757568.933761 1.680306 1.704086 3.066517 2.09993 4.383267-4.816979-1.147038-9.301293-4.316822-13.894631.110386-.767593-.304661-1.272606-.524185-1.795143-1.141247-1.301216-5.681171.359192-10.310451 3.158356-14.686632z" fill="#cec4af"/><path d="m44.001354 36.998547c.187752-5.637677 4.289837-9.195609 9.820805-8.074702-.026314 4.814406-.393505 9.481131-1.14914 14.716986-.819652 1.832047-1.250866 3.094955-2.065609 4.340153-3.721851-.359455-4.031093-2.691136-3.301471-5.119019.996086-3.314567-.016053-5.139919-3.304585-5.863418z" fill="#cec4af"/><path d="m63.983006 86.044403c-.213345-.254501-.426693-.509003-.854702-1.246376-1.165211-1.30645-2.115757-2.130028-3.0663-2.953613-.040733-.705818-.081467-1.411637-.155926-2.758995-.323707-1.123131-.613697-1.604721-.903682-2.086304-.262883-.80117-.525765-1.602333-.898934-2.954369-.108604-.725029-.106926-.8992-.099083-1.435295-.001171-1.084953-.008499-1.807991.115837-2.852485.016384-2.177513-.098896-4.03357-.214172-5.88963.153992-1.467304.307983-2.934604 1.025688-4.62791.782593-.193631 1.001473-.161259 1.185433.178772.220127 1.057598.475177 1.807541.742267 2.970966.102043 1.788799.192051 3.16412.240753 4.928028.571091 2.489952 1.183487 4.591316 1.795201 7.024445.01041.773956.021496 1.216156-.182396 1.909584.569809 2.42736 1.354584 4.60347 2.139366 6.779586.58091-.127021 1.161812-.254043 1.742722-.381065.153373-1.532654.306755-3.0653.702804-4.61071.242668-.012772.728386-.029388.963776.229462.45523 1.174415.675079 2.089973.983581 3.29673 1.049286 1.578422 2.009911 2.865646 2.625038 4.240669-1.545379 1.065102-2.745269 2.042412-3.945152 3.019722-.49485-.159889-.989693-.319779-1.748199-.9674-.907074-.929756-1.550499-1.371788-2.19392-1.813812z" fill="#686559"/><path d="m91.935135 44.015873c-.770325-1.386208-1.54065-2.772419-2.474411-4.452725 2.913299-3.300807 2.900024-6.056861-2.056862-7.757568-1.268539-.435232-2.195679-1.865526-3.361298-3.157904 5.861756-2.103904 8.870179 1.572581 11.688698 6.590205.751564 3.523956 1.334656 6.373604 1.51532 9.288601-2.035377.131828-3.668343.19831-5.302818.07093-.001519-.193867-.008629-.581539-.008629-.581539z" fill="#bdb4a4"/><path d="m78.652794 28.155333c-2.422722 4.44977-4.08313 9.07905-3.180672 14.717779-1.718071.229137-3.054901.103176-4.424118-.413128-.161636-1.167504-.290886-1.94466-.31514-2.980118.230523-.607998.356057-.957703.812378-1.465286 1.446663-3.333386 2.562531-6.508892 3.678391-9.684399 1.01757-.082813 2.035148-.165624 3.429161-.174848z" fill="#bdb4a4"/><path d="m71.080391 42.85033c1.33683.125958 2.67366.251919 4.409248.420319.903778.261967 1.408791.481491 2.291428 1.011974.678757.435879.979896.560803 1.40789.879364.324394.43364.551796.640877.598915 1.010365-.73748.410564-1.264831.626125-2.205208.793156-2.194526-.339055-3.982063-.896237-5.756103-.85616-2.516922.056855-5.673065-.412281-5.975159 3.760502-1.226524-.221359-2.097572-.491031-2.946399-1.14492-.000454-.897232-.023129-1.410244-.045803-1.923264 1.065944-.916263 2.131889-1.832531 3.913734-2.797874 1.913078-.41721 3.110268-.785336 4.307457-1.153462z" fill="#6e695f"/><path d="m91.945282 44.791275c1.632957-.066483 3.265923-.132965 5.659546-.113766 2.595474 1.13461 4.430282 2.183533 6.265091 3.232457.149231.77227.298462 1.544544.526794 2.703853-.804222.373753-1.687553.360466-2.987152.366131-.416275.018951-.411621.065174-.533523-.218453-.74086-.817996-1.35981-1.352367-2.275299-2.138511-3.101441-1.070042-5.906334-1.88831-8.458558-2.854893.769486-.424484 1.286293-.700649 1.803101-.976818z" fill="#6e695f"/><path d="m103.836098 47.550873c-1.800988-.689831-3.635796-1.738754-5.82885-2.938706-.94133-3.000682-1.524422-5.85033-2.111816-9.076652 4.675369 2.291363 6.595924 6.773407 7.940666 12.015358z" fill="#928c7d"/><path d="m57.667442 63.620308c.353878 2.103088.469158 3.959145.124832 5.957901-1.153377-1.644379-1.600288-3.588173-2.608169-5.17585-1.075478-1.694153-2.680897-3.051895-4.087811-4.854168-.00531-.695198.022229-1.092731.331944-1.664967.097164-1.420925-.087856-2.667144-.272877-3.913368 5.117165 1.115681 4.442806 6.095169 6.512081 9.650452z" fill="#514e43"/><path d="m51.198502 53.65263c.14188 1.56345.3269 2.809669-.131241 4.16106-1.746899-1.288795-3.78196-2.745743-3.693142-4.059055.08929-1.320362 2.292522-2.497757 3.687382-3.540692.303962.447403.534431.646115.809375.793244-.209743.776073-.419487 1.552143-.672374 2.645443z" fill="#cec4af"/><path d="m74.823975 28.253937c-.716202 3.251751-1.83207 6.427257-3.356659 9.375408-.657402-1.695892-.90609-3.164429-1.15477-4.632965-.72477-3.394192.478866-5.142882 4.511429-4.742443z" fill="#7a776c"/><path d="m62.882782 49.109146c.871048.269673 1.742096.539345 3.272247.776924 1.064896-.023212 1.470703-.014335 1.812767.27739-.370117.768234-.676506 1.253612-1.300613 1.649357-3.749676-1.464516-3.281086 1.401607-4.181511 3.146343-1.431889-.322987-2.522598-.642132-3.613308-.961281-.179268-.62941-.358536-1.258827.060059-2.00425 1.715362-1.038833 2.832862-1.961658 3.950359-2.884483z" fill="#514e43"/><path d="m69.938232 33.034c.622994 1.430916.871682 2.899453 1.198296 4.753224-.047607.734939-.173141 1.084644-.571129 1.6399-.272446.205555-.602684.078701-.602684.078701-1.331886-1.448818-2.663772-2.897636-4.463005-4.854824 1.311798-.509773 2.688004-1.044579 4.438522-1.617001z" fill="#474640"/><path d="m58.896278 54.408241c1.066796-.091213 2.157505.227932 3.763695.868088.794422 1.45892 1.073372 2.596825.964604 3.760887-1.415974.041882-2.44423.057602-3.472489.073322-.218883-.032371-.437763-.064743-.98518-.153709-.301262-1.417141-.273987-2.777683-.27063-4.548588z" fill="#605d53"/><path d="m62.905006 48.72493c-1.139721 1.307041-2.257221 2.229866-3.712486 3.207664.755169-1.632126 1.848103-3.319221 3.30386-5.068618.385494.45071.408169.963722.408626 1.860954z" fill="#605d53"/><path d="m51.990929 50.625618c-.394997.23444-.625466.035728-.911377-.748032-.096157-.981937-.092385-1.430412-.088612-1.878887.431213-1.262913.862427-2.525821 1.623886-3.898586.052216 1.974743-.225818 4.059338-.623897 6.525505z" fill="#b5ae9e"/><path d="m69.78244 39.808784c.180275-.302959.510513-.176105.677979-.123363.296699.829903.425949 1.607059.587585 2.774563-1.164802.758472-2.361992 1.126598-3.965454 1.484115.569016-1.284523 1.544312-2.558441 2.69989-4.135315z" fill="#7a776c"/><path d="m65.048935 19.835905c1.037476-.712875 2.239311-1.159323 3.763245-1.529196-.984894.649592-2.291886 1.222609-3.763245 1.529196z" fill="#514e43"/><path d="m50.60741 47.980984c.379757.46619.375985.914665.354161 1.699497-1.29493 1.576397-3.498162 2.753792-3.587452 4.074154-.088818 1.313312 1.946243 2.77026 3.410961 4.233761.333443.467064.305904.864597.26712 1.84703-.027958.777855-.044666.970814-.061371 1.163777-.326065.778621-.652126 1.557243-.987701 2.665912-2.08147-.109718-4.153427-.549488-6.453697-1.037716.148994-1.406604.732036-2.748371.310001-3.580207-3.620712-7.136502-2.063408-14.163716.141255-21.632622 3.289199.307476 4.301338 2.132828 3.305252 5.447395-.729622 2.427883-.42038 4.759564 3.301471 5.119019z" fill="#c9bfae"/><path d="m28.345802 98.00618c.113066-.944725.558642-1.892006 1.331368-2.922775.468696.779441.610243 1.642372.541891 2.713577-.653515.207725-1.097132.207184-1.873259.209198z" fill="#686559"/><path d="m30.164358 92.814308c-.480476-.301109-.775175-.787567-1.085508-1.568138.413339.264854.842312.823822 1.085508 1.568138z" fill="#6e695f"/><path d="m104.184471 91.166206c-.038246-.813781.13224-1.445411.83712-2.124031.712601-.048446.890824-.049896 1.069031-.051346.014397.412156.028786.824318.054008 1.544053-.098434.923996-.207695 1.540397-.410041 2.681968-.59742-.832176-.969407-1.350326-1.550118-2.050644z" fill="#423f36"/><path d="m102.370491 98.005157c.097664-.558105.488342-1.210136 1.163025-1.954299-.10067.558708-.485336 1.209548-1.163025 1.954299z" fill="#423f36"/><path d="m105.008675 87.001373c-3.108635.650254-6.217263 1.300499-9.631409 1.578125 1.010887-1.117981 2.477714-1.687637 3.60553-2.653251 1.403648-1.201767 2.52742-2.730423 3.832016-4.485329.546127-2.030594 1.032287-3.693764 1.51844-5.356941.707848 2.100181 1.415695 4.200363 2.343491 6.585937.20137 1.331917.182777 2.378433-.176369 3.841576-.724266.441048-1.107987.465462-1.491699.489883z" fill="#423f36"/><path d="m105.011246 87.333878c.381141-.356926.764862-.38134 1.432022-.434617.202102.535035.120766 1.098931-.156609 1.877198-.374244.21582-.552467.21727-.99778.219299-.269744-.442734-.2724-.886047-.277633-1.66188z" fill="#58544a"/><path d="m101.289566 104.837692c.096207-.600868.519211-1.161201 1.205444-1.799194.311226.359604.359208.796875.419663 1.5616-.424454.31102-.861382.294578-1.625107.237594z" fill="#423f36"/><path d="m26.640377 60.080887c1.215002 4.623611 3.903105 7.63353 8.212143 9.906883 2.405067 1.26886 3.930347 4.205307 5.999783 6.701836-.11588.508156-.501393.934349-.625508.868416-5.990997-3.182145-12.666891-5.641922-15.715309-12.343712-.530903-1.16716 1.136828-3.334408 2.128891-5.133423z" fill="#a7a192"/><path d="m23.8225 78.742584c-3.052629 2.247597-5.25898 1.210724-6.74945-2.407654 2.160543.459923 4.367929 1.278496 6.74945 2.407654z" fill="#7a776c"/><path d="m24.299574 46.963486c-.109163-.183152.061724-.457768.523338-.813454.090164.175236-.087841.442925-.523338.813454z" fill="#b5ae9e"/><path d="m15.576788 54.041706c.357838.067444.392868.257359.474565.733811-.779716 1.835765-1.606101 3.384986-2.718362 5.101375.449744-1.792793 1.185366-3.752754 2.243797-5.835186z" fill="#bdb4a4"/><path d="m102.05883 61.058533s-.048752.431202-.188171.940536c-2.050766 1.67178-3.962113 2.834229-6.062584 3.817475-.751282.251686-1.313423.682579-2.21463 1.108978-1.099037-.654701-1.859017-1.304917-2.617272-2.304306-.539634-1.470783-1.080986-2.592411-1.715652-4.093186-.089325-1.408767-.085335-2.438392.316566-3.463356 4.425858 1.334393 8.453797 2.664124 12.481743 3.993859z" fill="#b5ae9e"/><path d="m95.997208 65.995758c1.911338-1.16246 3.822685-2.324909 5.917572-3.784248.613449.005806 1.043365.308502 1.699112.750168.331802 4.172538.437767 8.206108.631553 12.680992-.398346 2.104484-.884506 3.767654-1.745933 5.827743-1.06807-.220405-1.76088-.837715-2.434265-1.804481-.049408-1.253006-.118241-2.15654-.045662-3.459259 2.059265-4.901253 1.046417-8.012116-4.037133-9.447342.00206-.424317.008408-.593949.014756-.763573z" fill="#90897b"/><path d="m102.362488 60.801105c-4.331604-1.072307-8.359543-2.402038-12.840973-4.10242-.142243-1.480862.168991-2.591069.785034-3.772126.949654-.933876 1.594505-1.796894 2.302231-2.744072.687347.254838 1.5784.585198 2.513634 1.25364 1.051124 1.987793 2.058059 3.637493 3.122268 5.381031 1.871453-.715054 3.371453-1.288182 4.87146-1.861309-.149994 1.862613-.299988 3.725219-.753654 5.845256z" fill="#9a9487"/><path d="m103.082397 54.629608c-1.466262.899368-2.966262 1.472496-4.837715 2.18755-1.064209-1.743538-2.071144-3.393238-2.8153-5.428543.468674-.411061.674584-.436524 1.058792-.46352.178299-.00153.522561.091507.678017.27449.697594.084888 1.239723-.013207 2.123306-.129734.797112-.020531 1.252777-.022629 1.708443-.024727 0 0-.004654-.046223-.025131-.035572.678284 1.105034 1.37706 2.199425 2.109588 3.620056z" fill="#8d887b"/><path d="m105.184875 60.358612c.229294-.082001.445427-.026798.610619.096607.046883.035023-.054733.268837-.088249.411488-.184944-.115006-.369896-.230011-.52237-.508095z" fill="#58544a"/><path d="m51.241898 61.298172c-.234364-.491932-.217656-.684891-.156853-1.165077 1.418163 1.217369 3.023582 2.575111 4.09906 4.269264 1.007881 1.587677 1.454792 3.531471 2.476505 5.497307.33527.901794.342598 1.624832.101078 2.79557-.434116.727112-.619385 1.006531-.804653 1.285942-.433472.014031-.866943.028061-1.742584-.224151-.682942-.536774-.923714-.807305-1.242382-1.344345-1.052567-.320557-2.027237-.374596-3.001908-.428643.174271-3.462295.348538-6.924598.271737-10.685867z" fill="#9e9989"/><path d="m50.918213 72.225677c1.026619-.187591 2.001289-.133552 2.810989.38295-.826748.931046-1.488521 1.399643-2.150299 1.868241-.142074-.255234-.284149-.510468-.638923-1.150444-.2127-.384743-.073712-.859116-.021767-1.100747z" fill="#8a8578"/><path d="m37.932274 64.69664c-.555531-.159073-1.177227-.622932-1.866524-1.390717.55505.159367 1.1777.622651 1.866524 1.390717z" fill="#b5ae9e"/><path d="m51.527004 74.718826c.713677-.710556 1.37545-1.179153 2.280094-1.843689.483639.074585.724411.345116 1.082398.860489-.540604.864838-1.198418 1.484825-2.121258 2.146103-.463932.028565-.662838.015839-1.157688.03067-.23299-.297287-.179489-.62368-.083546-1.193573z" fill="#423f36"/><path d="m100.045822 80.015396c.69281.617302 1.38562 1.234612 2.393723 1.822426-.929329 1.358002-2.053101 2.886658-3.456749 4.088425-1.127816.965614-2.594643 1.53527-4.013451 2.636619-1.536583 1.311684-2.970756 2.267357-5.007996 3.377945-2.384834.466835-4.166603.778755-5.948364 1.090683-3.195205-1.177582-6.390404-2.355156-9.835983-4.112015-.276108-1.258682-.301834-1.938095.010635-2.701706.801964-.095314 1.265755-.106407 1.963578.090256 1.006134.47271 1.778221.737663 2.686157 1.319527 3.232803 3.902801 6.154823 3.954391 10.221573.445793-.040772-.049904.058029.032768.360855-.036804.75193-.70829 1.201034-1.347016 1.85144-2.248711 1.718865-2.140419 3.236435-4.017868 4.982117-6.086807 1.416237-.022873 2.604355.145744 3.792465.314369z" fill="#686559"/><g fill="#423f36"><path d="m73.849442 86.301971c.025726.679413.051452 1.358826.074813 2.378808-1.839996.43608-3.677635.531585-5.757202.385963.957955-1.218437 2.157845-2.195747 3.974236-3.16243.980385.139641 1.344269.268654 1.708153.397659z"/><path d="m84.292496 93.261787c1.50225-.542221 3.284019-.854141 5.39592-1.131599-1.485383.476936-3.300904.919418-5.39592 1.131599z"/><path d="m60.167046 82.159332c.845501.508667 1.796047 1.332245 2.743225 2.514435-.881642-.494087-1.759911-1.346802-2.743225-2.514435z"/><path d="m64.056244 86.347862c.570183.138565 1.213608.580597 1.929428 1.329239-.570457-.13752-1.213326-.58165-1.929428-1.329239z"/><path d="m58.822136 77.18158c.470245.299118.760235.780708 1.039291 1.55281-.413803-.263099-.816677-.816719-1.039291-1.55281z"/><path d="m57.203209 73.990692c-.060906-.288925.124363-.568344.552322-.93354.241005.088394.239327.262565.211998.697105-.02565.260369-.51815.245941-.76432.236435z"/></g><path d="m91.943764 44.597412c-.51529.470032-1.032097.746197-2.104637 1.172722-.958512.194679-1.361283.238998-2.203301.268997-2.447853-.046188-4.456459-.078068-6.662735-.321083-.52578-.410694-.853897-.610248-1.364723-.800568-.182724.009236-.546257.050869-.546257.050869-.301148-.124923-.602287-.249847-1.018471-.600589 4.215721-4.738167 8.700035-1.568383 13.517014-.421345.374481.069458.381591.45713.38311.650997z" fill="#d5c9b0"/><path d="m74.18763 86.217766c-.702072-.0448-1.065956-.173813-1.700852-.401253-1.231628-1.385643-2.192253-2.672867-2.906517-4.38884 1.738556-1.380546 3.244957-3.145195 4.72007-3.119423 3.343437.058426 4.663063-1.732376 6.024635-4.339103 1.139809-.991768 1.917122-1.970688 3.11232-2.953247 1.813385-.023148 3.208893-.042664 4.618027-.022629.013634.039558-.009125.120087.002182.411362.008995.68074.006668 1.070205-.015274 1.870956-.02166 1.495621-.023697 2.579956-.414726 3.686913-5.799416 1.028228-10.664765 2.710845-11.71032 9.137771-.463783.011093-.927574.022186-1.729545.117493z" fill="#969181"/><path d="m79.962456 73.981979c-.999062 2.593895-2.318688 4.384697-5.662125 4.326271-1.475113-.025772-2.981514 1.738877-4.808723 2.828225-.554871-.778008-.77472-1.693566-1.217728-3.07428-.223167-.465157-.241318-.87796.118958-.927048 1.13623-1.061104 1.9122-2.073128 3.010238-3.176803 1.726532-.786973 3.130997-1.482293 4.879486-2.177735 1.459549-.251861 2.575073-.503609 3.794777-.513237.031166 1.066284-.041862 1.890442-.114883 2.714607z" fill="#6e695f"/><path d="m68.032562 77.184235s.018151.412803.005928.61911c-.012222.206299-.49794.222915-1.068382.169327-1.727676-.693284-2.884903-1.332985-4.042137-1.972687-.011089-.442192-.022175-.884392.199455-1.899857-.506832-2.772697-1.246387-4.972107-1.985939-7.171524-.090004-1.37532-.180012-2.750641.055966-4.53381 1.819953.931614 3.31393 2.271084 4.801967 3.993359.673752 3.853897 1.353447 7.324989 2.033142 10.796082z" fill="#9a9487"/><path d="m66.005356 66.005341c-1.493973-1.339463-2.98795-2.678933-4.819943-4.024029-.593071-.755573-.848121-1.505516-1.068248-2.563114 1.063182-.32338 2.091438-.3391 3.692642-.170464 1.088043.385513 1.603134.586674 2.162918 1.142448.690475 2.101109 1.336265 3.847596 1.657272 5.599488-.758072.008819-1.191353.012245-1.624641.015671z" fill="#858175"/><path d="m62.712997 76.251221c1.372208.388466 2.529435 1.028167 4.014435 1.734222.174401 1.598999.021019 3.131645-.132354 4.664299-.58091.127022-1.161812.254044-1.742722.381065-.784782-2.176116-1.569557-4.352226-2.139359-6.779586z" fill="#858175"/><path d="m61.100182 67.317192c.780857 1.810829 1.520412 4.010239 2.027923 6.451164-.844433-1.859848-1.456829-3.961212-2.027923-6.451164z" fill="#858175"/><path d="m68.031532 49.880611c-.4058-.008876-.811607-.017753-1.521034-.042854-.357002-4.14069 2.799141-3.671554 5.316063-3.728409 1.77404-.040077 3.561577.517105 5.746849 1.19035.077293 1.173759-.249176 1.964798-.928894 2.74089-.823692-.037929-1.294136-.060913-2.016327-.347358-2.38446-.088745-4.517158.085979-6.620377.254196.029488-.0065.02372-.066815.02372-.066815z" fill="#aea998"/><path d="m76.997765 50.055534c.326469-.791038.652938-1.582077.988655-2.707309.536621-.549748 1.063972-.765309 1.744079-1.441941.122025-.640068.091309-.819057.060585-.998043.32811.199559.656227.399113 1.141472 1.214695.143608 1.694577.130089 2.773133-.200043 3.896298-1.455986.041839-2.595367.03907-3.734748.0363z" fill="#a49d8b"/><path d="m79.608368 44.91748c.21344.169747.244156.348736.33226.793797-.199875.091587-.427277-.11565-.751671-.54929-.126846-.193638.236687-.235271.419411-.244507z" fill="#c4bba8"/><path d="m88.075073 46.053452c.402771-.04432.805542-.088639 1.511368-.134999 3.107964.816223 5.912857 1.634491 8.780991 2.874211-.643692.99229-1.350617 1.563125-2.057549 2.13396-.205917.025467-.411827.05093-.92469.123905-1.198013-.282844-2.089066-.613204-2.776413-.868042-.707726.947178-1.352577 1.810196-2.476524 2.438042-1.388451-.442207-2.297791-.649242-3.176262-1.22023.393608-2.02491.756347-3.685879 1.119079-5.346847z" fill="#a49d8b"/><path d="m96.488174 50.925095c.528641-.569306 1.235566-1.140141 2.175797-1.880658.852257.364693 1.471207.899064 2.212067 1.71706-.333764.285725-.789429.287823-1.906479.252701-1.093857-.024013-1.526345-.010803-1.958824.002404 0 0-.344262-.093037-.522561-.091507z" fill="#474640"/><path d="m65.92804 60.035568c-.515099-.20116-1.03019-.402321-1.730515-.813995-.46418-1.348419-.74313-2.486324-1.196373-3.941399.384945-2.06575-.083645-4.931873 3.804726-3.143738.716118 1.53793.975815 2.662602.972694 3.976815-.706413 1.103599-1.150001 2.017654-1.646843 3.182213-.103401.413703-.153549.576904-.203689.740104z" fill="#9a9487"/><path d="m68.041389 55.92371c-.259696-1.124672-.519393-2.249344-.917793-3.697636.167694-.809002.474083-1.29438.8442-2.062614.063736-.282849.069504-.222534.429634-.183632 1.142327.052338 1.924515.065769 2.755646.283539.319573.526096.59021.847858.943802 1.501266.364182.948841.645409 1.566029.697846 2.245674-.228798.062458-.697968.132275-1.004807.135903-1.105476.579399-1.904106 1.155163-2.964188 1.742325-.43576.019321-.610046.027248-.78434.035175z" fill="#817c70"/><path d="m95.986732 67.014023c5.07927 1.180534 6.092118 4.291397 3.718415 8.988663-4.190216-1.49965-7.924591-3.194489-11.658959-4.889328 0 0 .022759-.080529.001778-.432206-.364929-1.470031-.70887-2.588386-1.008171-4.024063.364471-1.113327.684311-1.90934 1.283844-2.561233 1.070061.387596 1.860435.631057 2.65081.874527.759979.650222 1.519959 1.300438 2.637215 1.974228.357284.023567.392929.059608.452286.32637.690658.082321 1.321952-.10212 1.945739-.279625-.007515.006943-.022957.022667-.022957.022667z" fill="#aca592"/><path d="m86.925117 51.764248c.909348.207039 1.818688.414074 2.902321.927139-.136932 1.416229-.448166 2.526436-.703827 4.002636.051575 1.395615.047585 2.42524.039551 4.126316-.362396 1.124912-.720749 1.578377-1.26445 1.701607-.975265-3.082809-1.76519-5.835392-2.555107-8.587971-.438911.046505-.877823.093014-1.316734.139523-.894684 1.649032-1.789368 3.298061-3.086861 5.689514-.586082-2.241257-.905411-3.462418-1.140755-5.0126.511231-1.265038.938469-2.201042 1.774155-3.085903 2.056206.067344 3.703957.083542 5.351707.099739z" fill="#514e43"/><path d="m88.084061 62.852177c.358352-.453461.716705-.906926 1.172416-1.652691.63871.829319 1.180062 1.950947 1.719696 3.42173-.792099.105697-1.582473-.137764-2.649955-.80027-.265465-.60228-.253807-.785523-.242157-.968769z" fill="#9a9487"/><path d="m95.808075 65.816544c.182785.348838.176437.51847.174377.942787.00428.254692.019722.238968-.308174.247413-.775161.004784-1.222419.00113-1.669685-.002525 0 0-.035645-.036041-.053864-.055122.543923-.449974 1.106064-.880867 1.857346-1.132553z" fill="#aca592"/><path d="m88.057495 71.404633c3.723061 1.403564 7.457436 3.098403 11.506241 4.997238.38327 1.107521.452103 2.011055.501511 3.264061-1.207535.180839-2.395653.012222-4.123093-.037522-1.67527-.451378-2.811195-1.021644-4.087601-1.903732-1.357879-1.828011-2.575302-3.3442-3.792717-4.860382.002327-.389458.004654-.778923-.004341-1.459663z" fill="#605d53"/><path d="m97.166191 51.199585c.277023-.19619.709511-.2094 1.461922-.166954-.222199.153747-.764328.251842-1.461922.166954z" fill="#9a9487"/><path d="m91.995026 78.036507c1.135933.570259 2.271858 1.140525 3.719001 1.783401-1.206352 1.950058-2.723922 3.827507-4.760673 6.024712-.958252.967003-1.397316 1.61425-1.83638 2.261497 0 0-.098801-.082672-.505219-.075561-3.574356-.23523-6.742286-.477562-9.910225-.719902-.772094-.264962-1.544181-.529915-2.550315-1.002625.811515-6.634682 5.676864-8.317299 11.661056-9.099083 1.776764.425072 2.979759.62632 4.182755.827561z" fill="#b3ac9a"/><path d="m78.837372 87.627556c3.032097-.074562 6.200027.16777 9.815155.452904-3.660332 3.501487-6.582352 3.449897-9.815155-.452904z" fill="#969181"/><path d="m89.4198 88.036545c.136238-.577675.575302-1.224922 1.332252-1.928955-.131218.581939-.580322 1.220665-1.332252 1.928955z" fill="#969181"/><path d="m86.955994 51.400299c-1.678627.347752-3.326378.331554-5.387238-.009502-.448616-.688633-.484123-1.052403-.519638-1.416176.013527-1.078552.027046-2.157108.081108-3.640549 2.049141-.373009 4.057747-.341129 6.5056-.294937.076515 1.675285-.286224 3.336254-.679832 5.361164z" fill="#c4bba8"/><path d="m86.995155 66.974411c.343941 1.118355.687882 2.23671 1.039177 3.667183-1.388153.331642-2.783661.351158-4.605636.365662-.426476-.005013-.416741.003814-.457474-.307106-.218651-1.179039-.396576-2.047158-.422012-2.171296 1.781967-.623031 3.113952-1.088745 4.445945-1.554443z" fill="#928c7d"/><path d="m91.854553 77.724678c-1.062523.110588-2.265518-.09066-3.65329-.538353-.182739-1.33078-.180702-2.415115-.159042-3.910736 1.23703 1.104889 2.454453 2.621078 3.812332 4.449089z" fill="#928c7d"/><path d="m80.324966 73.969147c-.289489-.811333-.216461-1.635491.132264-2.717423 1.035385-.252067 1.795051-.246361 2.554725-.240654 0 0-.009735-.008827-.001152-.000183-.768715.987572-1.546028 1.966492-2.685837 2.95826z" fill="#928c7d"/><path d="m82.971222 70.70015c-.718941.305213-1.478607.299507-2.618179.309455-1.495408.267395-2.610932.519143-4.079651.400849-.087517-2.769684-3.598358-5.988907 1.454147-7.317032.621178-.128822.962906-.350971 1.304634-.573116-.356613-.208184-.713219-.416363-1.065216-1.012467.006859-1.422409.00911-2.45689-.048256-3.799034-.684974-.767239-1.310348-1.226822-2.339233-1.686581-1.479103-.026123-2.554688-.052063-3.613159-.428451.054901-1.050697.092674-1.750942.130447-2.451191 0 0 .46917-.069817 1.005493-.116756.945572-.070431 1.35482-.093915 2.120171-.048672 1.735023.413246 3.113937.757763 4.492851 1.102283.319328 1.221157.638657 2.442318 1.224739 4.683575 1.297493-2.391453 2.192177-4.040482 3.086861-5.689514.438911-.046509.877823-.093018 1.316734-.139523.789917 2.752579 1.579842 5.505162 2.555107 8.587971.173699.513477.162041.69672.147812 1.15488-.322418 1.070923-.642258 1.866936-1.006729 2.980263-1.376633.78302-2.708618 1.248734-4.490585 1.871765.025436.124138.203361.992257.422012 2.171296m-5.378136-2.323205c.309029-.282989.618057-.565971.927086-.848953-.111557-.103904-.305847-.309967-.322395-.296562-.301689.244316-.582016.514992-.604691 1.145515z" fill="#aea998"/><path d="m71.949188 56.944221c1.075592.02594 2.151177.05188 3.702988.377938 1.092857.764847 1.709495 1.229576 2.326134 1.694305-.002243 1.034485-.004494 2.068966-.125405 3.774266-.21405.85033-.309433 1.02985-.404823 1.209369-4.773048 1.421448-1.262207 4.640671-1.518715 7.410469-1.395294 1.065483-2.799759 1.760803-4.84581 2.451309-1.470642-2.629081-2.299705-5.253349-3.128776-7.877609-.645791-1.74649-1.291581-3.492977-1.982056-5.594086.005455-.517814.055603-.681015.454277-1.159107 1.092903-.967273 1.837288-1.619659 2.949669-2.276077 1.102836-.006283 1.837677-.00853 2.572517-.010777z" fill="#c2b9a6"/><path d="m67.629997 65.98967c1.153855 2.618858 1.982918 5.243126 3.131493 7.963852-.456452 1.108497-1.232422 2.120521-2.368652 3.181625-1.039971-3.422005-1.719666-6.893097-2.393418-10.747002.439224-.38623.872505-.389656 1.630577-.398475z" fill="#aea998"/><path d="m79.799255 54.750412c-1.462898-.015495-2.841812-.360012-4.529258-1.182198-.296036-1.02676-.283539-1.575855-.311943-2.375709-.016266-.588921.008361-.92709.012268-1.231262-.020714.033992-.090378-.004551-.090378-.004551.470436.022983.94088.045967 1.764572.083896 1.49263.017716 2.632011.020485 4.087997-.021354.35212.31916.387627.68293.427796 1.320415-.422585 1.209721-.849823 2.145725-1.361054 3.410763z" fill="#9a9487"/><path d="m71.104134 50.059029c-.782189-.013432-1.564377-.026863-2.736184-.072697 1.743081-.207123 3.875779-.381847 6.260239-.293102.251755.263462.321419.302005-.047821.282737-1.404907.014843-2.440575.048951-3.476234.083062z" fill="#6e695f"/><path d="m69.008675 56.959034c-.744385.652382-1.48877 1.304768-2.528428 2.021538.148324-.849667.591912-1.763722 1.298325-2.867321.437111-.197468.611397-.205395 1.022225.046104.226982.439511.21743.619595.207878.799679z" fill="#b7b1a0"/><path d="m69.376671 56.954998c-.358444-.176048-.348892-.356132-.314415-.807041.823555-.846584 1.622185-1.422348 2.727661-2.001747.269066.696621.231293 1.396866.176392 2.447563-.751961.352695-1.486802.354942-2.589638.361225z" fill="#9a9487"/><path d="m71.153076 50.263367c.986717-.238449 2.022385-.272557 3.448006-.321389.365333.323437.340706.661606-.014137 1.197503-1.07782.229656-1.825425.261581-2.573021.293502-.270638-.321758-.541275-.64352-.860848-1.169616z" fill="#bdb4a4"/><path d="m72.096878 51.764633c.664642-.363571 1.412247-.395496 2.53096-.374393.35862.602119.346123 1.151214.286049 2.109249-.456818.432422-.866066.455906-1.58284.463875-.58876-.632702-.869987-1.24989-1.234169-2.198731z" fill="#605d53"/><path d="m94.06395 67.270981c.387909-.263107.835167-.259453 1.617843-.271179-.295891.169059-.927185.3535-1.617843.271179z" fill="#90897b"/><path d="m77.918701 58.708805c-.55703-.15707-1.173668-.621799-1.863006-1.386463.552658.159641 1.178032.619224 1.863006 1.386463z" fill="#b7b1a0"/><path d="m77.46199 68.194221c.153771-.447799.434098-.718475.735787-.962791.016548-.013405.210838.192658.322395.296562-.309029.282982-.618057.565964-1.058182.666229z" fill="#6e695f"/><path d="m77.727539 64.093422c-.184067-.272842-.088684-.452362.120758-.914768.470657-.074711.827263.133468 1.183876.341652-.341728.222145-.683456.444294-1.304634.573116z" fill="#58544a"/></svg>